<svg width="284" height="274" viewBox="0 0 284 274" fill="none" xmlns="http://www.w3.org/2000/svg">
<path d="M116.903 191.42C116.903 195.291 116.896 199.161 116.906 203.031C116.91 204.724 116.942 206.416 116.973 208.109C117.003 209.789 117.121 211.472 117.067 213.15C116.964 216.405 116.712 219.656 116.632 222.912C116.594 224.437 116.839 225.968 116.908 227.499C116.946 228.329 116.875 229.164 116.871 229.997C116.844 236.901 117.015 243.814 116.73 250.707C116.536 255.4 116.129 260.058 116.914 264.731C117.069 265.651 116.981 266.629 116.887 267.569C116.734 269.103 115.177 270.361 113.359 270.446C109.539 270.623 105.718 270.773 101.898 270.922C100.474 270.977 99.0024 269.898 99.0033 268.469C99.0048 266.067 99.3201 263.666 99.4407 261.263C99.5175 259.731 99.4854 258.195 99.4956 256.66C99.5301 251.503 99.6129 246.346 99.5763 241.189C99.552 237.752 99.3468 234.317 99.2397 230.881C99.1554 228.176 99.0165 225.47 99.0471 222.765C99.0846 219.451 99.3318 216.14 99.3843 212.825C99.4677 207.561 99.4923 202.296 99.4872 197.031C99.4845 194.144 99.0498 191.218 99.3939 188.381C99.756 185.393 98.9892 182.372 100.12 179.372C100.706 177.817 100.304 175.848 100.186 174.077C99.93 170.202 99.5616 166.335 99.2586 162.463C99.1842 161.51 98.7057 161.09 97.7754 160.911C95.4759 160.47 94.2213 158.988 94.299 156.551C94.3986 153.421 94.6569 150.293 94.9266 147.171C95.0364 145.901 96.6795 144.727 98.0973 144.706C101.829 144.65 105.562 144.511 109.293 144.539C112.645 144.565 115.995 144.8 119.348 144.872C120.331 144.893 121.319 144.662 122.307 144.569C122.695 144.533 123.098 144.499 123.478 144.562C128.663 145.413 133.88 144.962 139.083 144.935C144.323 144.908 149.562 144.744 154.801 144.61C158.211 144.523 161.62 144.272 165.029 144.298C168.421 144.324 171.812 144.725 175.204 144.741C178.516 144.755 181.829 144.405 185.143 144.371C188.696 144.334 192.251 144.504 195.805 144.529C196.996 144.537 198.193 144.263 199.378 144.315C202.547 144.455 205.711 144.831 208.879 144.871C212.835 144.921 216.818 144.422 220.743 144.733C224.2 145.007 227.608 144.783 231.039 144.797C233.285 144.807 235.526 145.345 237.773 145.372C239.672 145.396 241.574 145.005 243.478 144.838C244.506 144.748 245.541 144.717 246.573 144.705C251.632 144.645 256.692 144.529 261.75 144.573C266.596 144.616 271.44 144.823 276.284 144.979C277.073 145.004 277.869 145.086 278.644 145.235C280.792 145.65 281.85 146.671 281.935 148.76C282.058 151.805 282.707 154.827 283.013 157.871C283.078 158.512 282.827 159.424 282.377 159.832C281.041 161.044 280.588 162.473 280.658 164.202C280.808 167.879 280.967 171.557 281 175.236C281.014 176.717 280.667 178.197 280.557 179.683C280.238 183.991 279.968 188.302 279.656 192.61C279.391 196.268 278.997 199.895 279.413 203.599C279.674 205.915 279.042 208.316 279.033 210.68C279.021 213.577 279.293 216.474 279.35 219.372C279.451 224.468 279.542 229.565 279.523 234.661C279.508 238.481 279.276 242.299 279.208 246.119C279.155 249.185 279.224 252.252 279.2 255.318C279.171 258.932 278.423 262.534 279.19 266.17C279.405 267.188 279.085 268.322 278.994 269.401C278.945 269.988 278.754 270.584 278.817 271.155C279.007 272.873 278.706 273.441 276.974 273.617C275.152 273.802 273.308 273.775 271.474 273.842C270.102 273.893 268.73 273.987 267.358 273.986C265.576 273.984 263.768 274.082 262.022 273.81C260.569 273.583 260.201 272.201 260.187 270.902C260.168 269.22 260.272 267.536 260.366 265.856C260.516 263.192 260.78 260.533 260.85 257.867C260.929 254.847 260.813 251.823 260.845 248.801C260.888 244.751 261.061 240.7 261.041 236.651C261.031 234.575 260.6 232.502 260.579 230.425C260.545 227.111 260.723 223.796 260.755 220.481C260.773 218.651 260.65 216.821 260.634 214.991C260.601 211.065 260.561 207.138 260.59 203.213C260.622 198.868 260.765 194.524 260.787 190.179C260.799 187.787 260.36 187.462 257.966 187.481C254.444 187.51 250.922 187.454 247.4 187.514C244.538 187.562 241.678 187.789 238.816 187.808C237.854 187.814 236.888 187.237 235.926 187.243C231.704 187.269 227.483 187.507 223.262 187.483C219.738 187.463 216.216 187.109 212.69 187.052C210.502 187.017 208.309 187.359 206.118 187.356C202.257 187.35 198.396 187.186 194.534 187.141C193.597 187.13 192.656 187.413 191.717 187.405C189.59 187.388 187.465 187.245 185.337 187.21C183.216 187.176 182.859 187.295 182.726 189.322C182.485 192.97 182.575 196.638 182.466 200.296C182.403 202.422 182.199 204.543 182.1 206.669C181.973 209.381 181.847 212.095 181.796 214.809C181.725 218.571 181.628 222.336 181.716 226.096C181.86 232.201 182.218 238.302 182.339 244.408C182.399 247.422 181.953 250.449 182.058 253.459C182.186 257.123 181.77 260.722 181.432 264.345C181.329 265.456 181.623 266.61 181.779 267.738C182.006 269.372 181.546 269.905 179.868 269.945C176.793 270.02 173.718 270.197 170.645 270.168C168.927 270.152 167.206 269.847 165.497 269.598C164.206 269.41 163.893 268.347 163.797 267.281C163.432 263.22 162.992 259.16 162.84 255.089C162.754 252.772 163.245 250.439 163.347 248.108C163.457 245.593 163.421 243.072 163.441 240.553C163.463 237.883 163.525 235.211 163.483 232.542C163.434 229.375 163.245 226.21 163.209 223.043C163.181 220.574 163.322 218.102 163.337 215.631C163.35 213.65 163.276 211.667 163.259 209.685C163.236 207.058 163.352 204.423 163.188 201.805C162.985 198.561 163.93 195.31 162.991 192.061C162.744 191.207 163.022 190.183 163.139 189.247C163.295 187.994 162.567 187.382 161.534 187.378C158.965 187.369 156.396 187.558 153.826 187.621C153.007 187.641 152.18 187.546 151.363 187.448C146.237 186.827 141.1 186.9 135.962 187.227C133.439 187.387 130.922 187.705 128.398 187.761C126.789 187.797 125.175 187.422 123.558 187.346C121.581 187.252 119.591 187.182 117.625 187.334C117.233 187.364 116.766 188.406 116.617 189.047C116.441 189.8 116.575 190.625 116.575 191.419C116.685 191.42 116.794 191.42 116.903 191.42ZM177.585 161.267C177.582 161.309 177.58 161.352 177.577 161.394C176.729 161.394 175.853 161.265 175.042 161.438C174.446 161.564 173.646 161.972 173.452 162.459C173.159 163.198 173.23 164.122 173.294 164.955C173.613 169.147 173.984 173.335 174.329 177.525C174.425 178.7 174.66 179.896 174.538 181.052C174.261 183.682 174.996 184.665 177.64 184.793C178.088 184.814 178.539 184.782 178.989 184.775C183.986 184.696 188.984 184.568 193.981 184.555C197.057 184.546 200.135 184.798 203.211 184.781C208.149 184.753 213.086 184.57 218.024 184.509C223.263 184.444 228.504 184.499 233.743 184.402C237.798 184.328 241.849 184.065 245.904 183.954C248.392 183.887 250.887 183.88 253.374 183.967C256.793 184.085 260.206 184.393 263.625 184.481C266.985 184.568 270.35 184.492 273.712 184.469C276.379 184.452 276.826 184.008 276.953 181.367C276.965 181.122 277.033 180.879 277.076 180.635C277.329 179.229 277.732 177.83 277.799 176.416C277.905 174.19 277.753 171.953 277.766 169.721C277.78 167.307 277.932 164.891 277.885 162.479C277.853 160.843 277.034 160.355 275.347 160.449C273.577 160.549 271.798 160.472 270.025 160.515C269.283 160.532 268.542 160.649 267.802 160.737C266.674 160.87 265.551 161.097 264.42 161.136C262.93 161.187 261.434 161.038 259.943 161.075C257.572 161.134 255.183 161.514 252.839 161.317C250.374 161.109 247.968 160.973 245.52 161.408C244.315 161.622 243.06 161.608 241.828 161.608C240.194 161.609 238.561 161.506 236.927 161.477C235.042 161.444 233.152 161.515 231.271 161.408C228.907 161.274 226.552 160.852 224.191 160.83C220.233 160.794 216.273 161.01 212.313 161.052C210.2 161.075 208.085 160.926 205.971 160.914C204.49 160.906 203.008 161.035 201.527 161.04C198.703 161.05 195.878 160.96 193.056 161.018C190.555 161.069 188.057 161.256 185.558 161.405C185.119 161.432 184.682 161.651 184.25 161.633C182.027 161.537 179.807 161.393 177.585 161.267ZM114.012 160.906C114.012 160.89 114.012 160.875 114.012 160.859C111.025 160.859 108.037 160.862 105.049 160.858C103.509 160.856 103.084 161.405 103.068 162.969C103.049 164.903 102.871 166.836 102.751 168.769C102.62 170.891 102.378 173.013 102.368 175.136C102.357 177.549 102.541 179.964 102.656 182.377C102.705 183.408 103.058 184.339 104.219 184.417C106.077 184.541 107.946 184.499 109.81 184.541C112.642 184.606 115.478 184.81 118.305 184.727C123.61 184.572 128.908 184.161 134.213 184.05C136.365 184.004 138.527 184.642 140.686 184.653C143.605 184.669 146.527 184.24 149.446 184.258C153.047 184.28 156.644 184.621 160.246 184.718C162.904 184.789 165.569 184.734 168.227 184.653C170.361 184.589 170.884 183.856 170.876 181.714C170.861 177.991 170.98 174.266 170.999 170.542C171.012 167.934 170.988 165.324 170.88 162.719C170.864 162.338 170.308 161.682 169.966 161.658C166.058 161.383 162.146 161.127 158.231 161.028C154.917 160.945 151.598 161.104 148.282 161.101C145.694 161.099 143.106 161.051 140.521 160.952C138.112 160.859 135.706 160.674 133.299 160.522C131.92 160.434 130.535 160.208 129.163 160.271C127.835 160.331 126.525 160.844 125.2 160.875C121.472 160.963 117.742 160.906 114.012 160.906ZM245.551 156.886C245.552 156.99 245.552 157.094 245.552 157.199C247.223 157.199 248.895 157.202 250.567 157.198C255.037 157.187 259.507 157.175 263.977 157.157C264.814 157.154 265.73 156.897 266.474 157.151C270.364 158.48 274.363 157.142 278.294 157.75C280.118 158.033 280.859 156.937 280.589 155.033C280.319 153.132 280.086 151.199 279.522 149.378C279.31 148.693 278.227 147.846 277.519 147.825C275.008 147.749 272.487 148.001 269.97 148.123C266.609 148.285 263.247 148.569 259.886 148.568C255.365 148.566 250.844 148.379 246.326 148.195C244.606 148.124 242.894 147.686 241.179 147.69C237.276 147.699 233.373 147.941 229.469 147.973C224.15 148.016 218.829 147.881 213.511 147.959C210.206 148.007 206.906 148.31 203.603 148.494C202.71 148.544 201.814 148.637 200.923 148.612C197.264 148.509 193.606 148.328 189.947 148.255C186.378 148.184 182.807 148.147 179.241 148.253C178.668 148.27 177.642 149.108 177.642 149.566C177.642 151.498 177.869 153.444 178.203 155.352C178.29 155.847 179.036 156.554 179.53 156.597C183.266 156.927 187.021 156.707 190.775 157.193C193.384 157.53 196.091 157.021 198.753 157.046C202.99 157.085 207.225 157.303 211.462 157.351C214.46 157.385 217.479 157.016 220.451 157.271C224.478 157.616 228.448 157.595 232.429 156.937C233.108 156.824 233.817 156.888 234.513 156.887C238.192 156.884 241.872 156.886 245.551 156.886ZM161.323 157.074C161.324 157.024 161.325 156.974 161.326 156.923C162.658 156.83 163.988 156.684 165.321 156.654C167.751 156.599 170.185 156.664 172.612 156.555C173.073 156.535 173.817 156.01 173.903 155.605C174.294 153.763 174.611 151.889 174.728 150.012C174.821 148.545 174.082 147.896 172.631 147.929C171 147.965 169.373 148.158 167.743 148.219C164.933 148.322 162.123 148.423 159.312 148.438C156.351 148.453 153.39 148.349 150.429 148.332C148.744 148.322 147.051 148.492 145.374 148.387C142.558 148.211 139.756 147.745 136.94 147.654C134.296 147.569 131.641 147.809 128.991 147.912C126.084 148.026 123.178 148.206 120.271 148.253C115.514 148.329 110.755 148.313 105.998 148.35C103.918 148.367 101.833 148.338 99.7602 148.482C98.3514 148.58 97.7496 149.517 97.9692 150.976C98.2035 152.533 98.619 154.071 98.7363 155.634C98.832 156.908 99.5037 157.259 100.564 157.293C103.444 157.387 106.323 157.505 109.203 157.537C114.272 157.593 119.342 157.563 124.411 157.634C125.938 157.655 127.465 158.026 128.987 157.998C132.59 157.934 136.19 157.684 139.793 157.585C146.969 157.388 154.146 157.241 161.323 157.074ZM171.747 205.842C171.343 200.171 170.837 195.111 171.725 190.037C171.858 189.277 171.67 187.857 171.284 187.72C170.003 187.265 168.531 187.016 167.201 187.195C166.655 187.268 165.939 188.617 165.894 189.418C165.735 192.288 165.817 195.171 165.834 198.049C165.848 200.36 165.948 202.672 165.916 204.981C165.901 205.998 165.356 207.076 165.561 208.015C166.598 212.777 166.06 217.577 166.09 222.359C166.114 226.277 165.964 230.197 165.963 234.116C165.962 236.975 166.137 239.834 166.124 242.693C166.112 245.208 165.544 247.788 165.938 250.224C166.759 255.313 166.135 260.334 165.849 265.376C165.785 266.488 165.75 267.281 166.98 267.507C169 267.88 171.234 266.994 171.362 265.824C171.373 265.725 171.371 265.625 171.372 265.525C171.393 264.233 171.397 262.94 171.437 261.648C171.526 258.782 171.672 255.918 171.72 253.052C171.767 250.274 171.737 247.495 171.711 244.717C171.683 241.697 171.558 238.676 171.593 235.658C171.621 233.247 171.864 230.839 171.929 228.427C171.953 227.547 171.65 226.661 171.649 225.777C171.646 222.656 171.727 219.534 171.743 216.412C171.762 212.687 171.747 208.961 171.747 205.842ZM101.9 261.23C101.955 261.237 102.01 261.245 102.065 261.253C102.16 262.241 102.102 263.279 102.401 264.201C102.603 264.823 103.342 265.752 103.783 265.721C104.975 265.638 106.699 266.468 107.196 264.525C107.446 263.546 107.47 262.495 107.494 261.475C107.56 258.678 107.622 255.879 107.59 253.082C107.566 251.055 107.366 249.03 107.294 247.002C107.264 246.171 107.421 245.334 107.395 244.503C107.299 241.438 107.078 238.375 107.067 235.31C107.058 232.955 107.358 230.601 107.404 228.245C107.469 224.868 107.486 221.488 107.416 218.112C107.348 214.854 107.013 211.599 107.033 208.344C107.056 204.728 107.445 201.116 107.49 197.499C107.521 194.987 107.113 192.469 107.14 189.956C107.163 187.826 107.188 187.658 105.121 187.319C104.826 187.27 104.528 187.241 104.233 187.19C103.157 187.005 102.457 187.338 102.408 188.532C102.359 189.711 102.339 190.891 102.295 192.069C102.165 195.56 101.934 199.049 101.928 202.54C101.924 205.009 102.344 207.479 102.356 209.949C102.38 214.463 102.219 218.979 102.179 223.494C102.133 228.631 103.04 233.736 102.254 238.916C101.76 242.174 101.941 245.542 101.932 248.861C101.929 250.029 102.434 251.202 102.403 252.365C102.327 255.322 102.079 258.275 101.9 261.23ZM276.149 192.583C276.004 191.465 275.917 190.026 275.611 188.634C275.247 186.978 273.725 187.388 272.651 187.405C272.226 187.412 271.509 188.373 271.457 188.948C271.305 190.66 271.377 192.398 271.433 194.123C271.564 198.172 271.803 202.219 271.866 206.269C271.897 208.234 271.628 210.203 271.501 212.171C271.37 214.186 271.118 216.203 271.151 218.215C271.193 220.74 271.646 223.263 271.609 225.782C271.541 230.474 271.206 235.162 271.07 239.853C271.025 241.424 271.319 243.001 271.335 244.576C271.383 249.216 271.4 253.856 271.369 258.496C271.347 261.734 271.341 264.98 271.1 268.205C270.978 269.839 271.965 270.609 272.985 270.792C274.426 271.049 275.802 270.271 276.129 268.939C276.345 268.059 276.271 267.107 276.326 266.188C276.447 264.204 276.718 262.216 276.656 260.238C276.528 256.195 276.133 252.16 276.012 248.117C275.884 243.787 275.954 239.451 275.918 235.118C275.902 233.043 275.807 230.968 275.811 228.893C275.816 225.982 275.856 223.07 275.925 220.159C275.985 217.657 276.158 215.157 276.181 212.656C276.198 210.8 276.001 208.943 275.996 207.086C275.992 204.929 276.119 202.773 276.143 200.616C276.17 198.045 276.149 195.473 276.149 192.583ZM174.101 263.94C174.188 263.939 174.274 263.938 174.361 263.937C174.329 264.621 174.171 265.329 174.294 265.985C174.494 267.049 176.211 267.766 177.923 267.629C179.225 267.525 179.569 266.629 179.548 265.545C179.508 263.477 179.412 261.41 179.309 259.345C179.211 257.362 179.055 255.381 178.958 253.398C178.874 251.677 178.774 249.953 178.793 248.231C178.828 245.208 178.949 242.186 179.035 239.163C179.046 238.778 179.092 238.392 179.078 238.008C179.002 235.85 178.798 233.689 178.85 231.534C178.964 226.784 179.283 222.037 179.357 217.286C179.389 215.223 178.941 213.157 178.861 211.086C178.782 209.029 178.931 206.964 178.909 204.903C178.88 202.14 178.734 199.378 178.733 196.615C178.732 194.346 178.843 192.076 178.955 189.808C179.051 187.861 178.411 187.174 176.441 187.247C176.245 187.254 176.051 187.327 175.854 187.335C174.181 187.405 173.827 187.952 174.011 189.537C174.276 191.835 174.48 194.153 174.496 196.464C174.522 200.464 174.378 204.465 174.315 208.466C174.255 212.228 174.17 215.989 174.163 219.751C174.155 223.584 174.599 227.426 173.896 231.245C173.853 231.481 173.936 231.739 173.951 231.988C174.148 235.254 174.431 238.519 174.497 241.789C174.526 243.197 173.933 244.613 173.92 246.028C173.889 249.518 174.048 253.01 174.095 256.501C174.128 258.98 174.101 261.461 174.101 263.94ZM264.193 237.524C264.077 237.524 263.962 237.524 263.846 237.524C263.846 240.719 263.82 243.914 263.853 247.109C263.893 250.914 263.985 254.718 264.053 258.522C264.09 260.61 264.059 262.701 264.181 264.784C264.278 266.463 264.501 268.141 264.774 269.802C265.015 271.266 266.166 271.139 267.236 270.979C268.313 270.818 268.334 270.07 268.243 269.179C268.119 267.948 268.04 266.703 268.079 265.469C268.199 261.618 268.495 257.77 268.518 253.92C268.548 248.934 268.408 243.947 268.289 238.961C268.172 234.126 267.955 229.293 267.859 224.457C267.834 223.193 268.229 221.921 268.2 220.658C268.132 217.667 267.852 214.68 267.794 211.689C267.734 208.57 267.824 205.448 267.868 202.328C267.889 200.937 267.967 199.548 268.007 198.158C268.081 195.535 268.22 192.911 268.175 190.291C268.159 189.386 267.941 188.154 267.337 187.68C266.694 187.175 265.469 187.252 264.531 187.36C264.169 187.401 263.64 188.222 263.628 188.698C263.578 190.77 263.471 192.881 263.786 194.916C264.646 200.474 264.045 206.047 264.15 211.608C264.313 220.244 264.193 228.885 264.193 237.524ZM109.675 262.564C109.759 263.281 109.678 263.8 109.889 264.134C110.246 264.694 110.772 265.513 111.257 265.534C111.868 265.561 112.595 264.985 113.108 264.497C113.41 264.208 113.5 263.586 113.504 263.113C113.531 259.558 113.575 256.001 113.492 252.447C113.393 248.19 113.099 243.938 113.028 239.681C112.968 236.105 113.126 232.527 113.153 228.95C113.176 225.94 113.191 222.927 113.122 219.918C113.095 218.74 112.669 217.563 112.699 216.393C112.779 213.28 113.068 210.172 113.163 207.059C113.288 202.985 113.331 198.907 113.36 194.831C113.374 192.922 113.309 191.011 113.21 189.105C113.151 187.964 112.534 187.189 111.319 187.23C109.984 187.276 109.953 188.342 109.946 189.309C109.911 194.052 109.817 198.796 109.899 203.536C109.994 208.964 110.797 214.355 109.873 219.826C109.406 222.587 109.94 225.515 109.996 228.369C110.063 231.834 110.148 235.301 110.144 238.767C110.141 242.09 110.058 245.413 109.966 248.735C109.918 250.472 109.716 252.206 109.688 253.943C109.64 256.904 109.675 259.868 109.675 262.564Z" fill="black"/>
<path d="M29.3928 85.6047C27.8643 85.6047 26.433 85.5222 25.0146 85.6227C22.4556 85.8039 19.9062 86.4477 17.3592 85.4721C16.9356 85.3098 16.3884 85.4517 15.9 85.4805C13.6047 85.6158 11.4036 85.2108 9.24631 84.5439C9.2196 84.3618 9.1935 84.18 9.1668 83.9979C10.2456 83.697 11.3073 83.2416 12.4062 83.1201C19.1439 82.374 25.9131 81.8712 32.6241 80.943C36.4362 80.4156 40.1457 79.1772 43.9236 78.3615C47.643 77.5584 51.4044 76.9491 55.1205 76.1322C57.5262 75.6033 59.8584 74.9241 61.9851 73.4754C64.3584 71.8587 67.0056 70.6467 69.5151 69.2259C72.3084 67.6446 75.1941 66.1917 77.8341 64.3833C81.3333 61.9866 84.6699 59.3454 88.0014 56.7144C89.3169 55.6755 90.5196 54.4578 91.6197 53.1885C94.677 49.6608 97.5918 46.0227 99.2442 41.5665C99.3999 41.1465 99.5997 40.7277 99.6627 40.2915C99.8562 38.9544 99.168 38.442 97.9074 38.9088C92.9409 40.7481 87.7821 41.4165 82.5141 41.745C77.6499 42.0483 72.6792 42.009 68.094 44.1126C64.2369 45.882 60.3903 47.6739 56.5392 49.4565C54.8274 50.2488 53.1405 51.1023 51.3993 51.8235C47.5929 53.4003 44.037 55.4082 40.6452 57.7398C39.6789 58.404 38.577 58.9035 37.4793 59.3289C37.0083 59.5113 36.3891 59.3112 35.8371 59.2851C35.9682 58.6905 35.8989 57.8742 36.2667 57.5421C37.4745 56.4516 38.7705 55.419 40.1625 54.5802C42.6873 53.0592 45.3453 51.7602 47.8722 50.2425C49.8678 49.044 51.7284 47.6229 53.6925 46.3689C54.4383 45.8928 55.3308 45.6522 56.1096 45.2199C56.7831 44.8461 57.3906 44.3532 58.0272 43.9128C57.9585 43.7679 57.8901 43.6227 57.8214 43.4778C56.0649 43.3665 54.2982 43.3383 52.5534 43.1277C48.3063 42.6153 44.2173 43.0896 40.4049 45.0747C37.9557 46.35 35.5761 47.7696 33.2253 49.221C30.5616 50.8656 27.8931 52.5183 25.3569 54.3483C22.1001 56.6982 18.903 59.1429 15.8079 61.701C11.6553 65.133 7.98421 69.0585 4.6611 73.3011C3.42991 74.8728 2.0817 75.6516 1.42021 74.9478C0.280202 73.7346 1.4685 72.5325 2.02921 71.6574C3.7083 69.0366 5.5779 66.5214 7.5513 64.1112C8.7891 62.5992 10.368 61.3695 11.7585 59.9781C13.9626 57.7728 16.0863 55.485 18.3456 53.3388C19.4565 52.2834 20.7399 51.3795 22.0413 50.5596C25.4241 48.4287 28.8543 46.3716 32.2821 44.313C32.7831 44.0121 33.3795 43.8738 33.9237 43.6416C34.854 43.245 35.7783 42.8334 36.705 42.4284C36.6744 42.2325 36.6435 42.0363 36.6129 41.8404C36.2469 41.7024 35.8788 41.4393 35.5152 41.4453C31.3605 41.5122 27.9384 39.3303 24.2802 37.8588C21.4689 36.7278 19.011 35.0433 16.674 33.1695C15.915 32.5608 15.2343 31.8126 14.6757 31.0173C14.4687 30.7227 14.715 30.1098 14.7546 29.6421C15.1866 29.7474 15.7917 29.7063 16.0233 29.9808C18.0906 32.4312 20.7975 34.0044 23.5935 35.373C25.074 36.0975 26.7789 36.399 28.4106 36.7665C29.6961 37.056 31.0335 37.1076 32.3325 37.3473C35.4282 37.9188 38.4978 38.6586 41.6106 39.1011C43.9989 39.4407 46.4358 39.4533 48.8529 39.5703C52.9497 39.7689 57.0498 40.1022 61.1451 40.0608C64.2963 40.029 67.4427 39.5097 70.5906 39.2031C71.0334 39.1599 71.4726 39.0537 71.9151 39.0444C74.7816 38.9838 77.6514 39.0012 80.5149 38.8758C82.8837 38.772 85.227 38.529 87.3888 37.3212C88.1793 36.8796 89.2146 36.8838 90.1332 36.663C91.8663 36.2466 93.6003 35.8329 95.3217 35.3727C95.6511 35.2845 95.9244 34.9863 96.2235 34.785C95.9706 34.5141 95.7681 34.1271 95.4564 33.9915C93.7251 33.2382 91.9359 32.6139 90.2256 31.8183C86.7468 30.2004 83.1414 29.0016 79.3611 28.3623C75.4125 27.6945 71.4729 26.9013 67.4952 26.4981C63.2025 26.0631 58.8723 25.9692 54.5553 25.8138C50.454 25.6662 46.3491 25.599 42.2451 25.5627C40.6596 25.5486 39.072 25.7802 37.4865 25.7697C36.8526 25.7655 36.2211 25.4109 35.5884 25.2156C35.598 24.9945 35.6079 24.7737 35.6175 24.5526C36.9528 24.1629 38.268 23.6691 39.6276 23.4045C42.7374 22.7997 45.8526 22.0296 48.9963 21.843C52.4496 21.6378 55.9365 22.0413 59.4102 22.1196C60.9396 22.1541 62.4729 22.0491 64.0038 21.9918C66.6681 21.8919 69.2559 22.3536 71.8611 22.8648C75.3882 23.5569 78.9666 23.9847 82.503 24.6348C84.2469 24.9552 85.9431 25.5312 87.6669 25.9671C88.0881 26.0736 88.5339 26.0832 88.9683 26.1372C89.0577 25.9929 89.1471 25.8486 89.2365 25.7043C88.0632 24.8532 86.9184 23.9589 85.707 23.1666C84.8964 22.6365 83.9031 22.3647 83.1438 21.78C80.7705 19.9524 77.9985 19.0188 75.1992 18.2253C71.4039 17.1495 67.5669 16.1979 63.7098 15.3699C61.3014 14.853 58.8312 14.4876 56.3736 14.3721C53.7096 14.247 51.0291 14.5137 48.3549 14.5629C47.232 14.5836 46.0977 14.3706 44.9841 14.4588C39.8289 14.8674 34.6824 15.2781 29.6448 16.6314C25.0131 17.8755 20.3001 18.8142 15.6498 19.9932C14.2365 20.3514 12.915 21.0687 11.5449 21.6045C11.0976 21.7794 10.629 21.9 10.1388 22.0551C9.42451 20.1849 10.9101 19.3764 11.8452 18.9096C16.2906 16.6905 20.4594 13.8264 25.5735 13.0974C31.6455 12.2316 37.6632 10.9533 43.7499 10.2378C48.369 9.69482 53.0277 9.55262 57.7293 9.88352C62.7297 10.2357 67.4769 11.5509 72.2784 12.6963C74.0796 13.1259 75.7548 14.0802 77.4906 14.787C78.4428 15.1749 79.4151 15.5166 80.3559 15.9297C82.5708 16.9023 84.8394 17.7807 86.9613 18.9288C89.4261 20.2623 91.7511 21.8538 94.152 23.3076C94.6371 23.6013 95.1918 23.7804 96.0579 23.7849C95.6877 22.638 95.4018 21.4554 94.9305 20.3514C93.8499 17.82 92.6586 15.3354 91.5684 12.8079C91.4178 12.459 91.5852 11.973 91.6053 11.5503C92.0721 11.577 92.6676 11.4312 92.9802 11.6646C93.7614 12.2481 94.4943 12.9396 95.1048 13.7013C98.1141 17.4558 99.9873 21.8181 101.711 26.256C102.015 27.0378 102.355 27.8088 102.736 28.5555C102.873 28.8252 103.195 29.1996 103.405 29.1831C103.671 29.1624 103.961 28.8261 104.146 28.5603C104.305 28.3305 104.378 28.014 104.412 27.7269C104.794 24.4917 105.121 21.2496 105.548 18.0207C105.763 16.3977 106.128 14.7927 106.472 13.1895C106.919 11.1036 106.356 10.422 104.312 10.1946C100.134 9.72932 95.9076 9.37412 92.1225 7.27472C90.2088 6.21332 90.0357 3.31832 91.938 2.13332C93.0576 1.43582 94.4754 0.993321 95.7954 0.885921C98.8653 0.63632 101.957 0.622221 105.04 0.594618C105.971 0.586223 106.919 0.784224 107.833 0.999016C109.571 1.40762 110.293 2.79302 110.573 4.34612C111.194 7.77452 111.482 11.2254 110.589 14.6691C110.491 15.0492 110.498 15.4557 110.445 15.8487C110.007 19.1373 109.592 22.4295 109.116 25.7127C108.814 27.7911 108.406 29.8542 108.073 31.9284C107.898 33.0192 108.249 33.681 109.47 33.9471C113.602 34.8474 117.774 35.6415 121.812 36.8691C125.961 38.1306 129.994 39.7932 134.026 41.4108C135.246 41.9004 136.27 42.8616 137.423 43.5417C142.675 46.6413 147.469 50.3016 151.336 55.0593C153.32 57.501 155.168 60.0525 157.1 62.5371C158.467 64.2942 159.961 65.9589 161.229 67.7823C162.297 69.3174 163.2 70.9827 164.038 72.6594C165.517 75.6174 167.014 78.5772 168.267 81.633C169.177 83.8503 169.71 86.2224 170.404 88.5276C170.945 90.3219 171.541 92.103 171.994 93.9195C172.654 96.5655 173.385 99.2133 173.761 101.906C174.231 105.273 174.392 108.684 174.647 112.079C174.829 114.502 174.929 116.931 175.101 119.355C175.17 120.329 175.671 120.877 176.737 120.903C178.792 120.955 180.788 121.176 182.374 122.771C182.795 123.194 183.527 123.303 184.108 123.575C186.237 124.571 188.333 125.65 190.514 126.517C190.969 126.698 192.07 126.281 192.291 125.844C193.169 124.11 193.924 122.295 194.525 120.446C195.651 116.978 196.65 113.468 197.678 109.969C198.192 108.218 198.657 106.454 199.133 104.693C199.263 104.212 199.32 103.71 199.468 103.235C201.151 97.8447 202.819 92.4495 204.544 87.0723C205.811 83.1222 207.128 79.1871 208.491 75.2691C208.796 74.3922 209.308 73.5543 209.877 72.8163C210.167 72.441 210.789 72.1443 211.273 72.1245C215.277 71.9619 219.283 71.79 223.289 71.7915C225.806 71.7924 228.322 72.1083 230.841 72.243C233.251 72.372 235.663 72.5079 238.075 72.528C239.559 72.5403 241.049 72.2118 242.529 72.264C245.612 72.3726 248.695 72.5874 251.77 72.8418C255.454 73.1463 259.132 73.5225 262.808 73.911C263.267 73.9596 263.698 74.2734 264.143 74.4642C264.129 74.6619 264.116 74.8599 264.102 75.0576C262.548 75.3216 261.001 75.7503 259.439 75.8154C256.178 75.951 252.91 75.9237 249.645 75.9099C244.794 75.8892 239.944 75.8328 235.093 75.771C232.02 75.7317 228.947 75.609 225.873 75.615C224.35 75.618 222.824 75.7974 221.304 75.9531C220.181 76.0683 219.628 76.7751 219.308 77.8542C218.125 81.8502 216.978 85.863 215.607 89.7963C213.737 95.1627 211.703 100.473 209.682 105.786C208.539 108.791 207.241 111.737 206.086 114.737C204.275 119.444 202.506 124.167 200.76 128.898C200.08 130.74 200.431 131.35 202.369 131.364C205.042 131.384 207.716 131.162 210.391 131.098C211.836 131.063 213.283 131.132 214.728 131.17C218.31 131.264 221.893 131.328 225.472 131.484C227.688 131.581 229.901 131.998 232.11 131.963C236.658 131.892 241.201 131.602 245.748 131.431C246.841 131.39 247.942 131.417 249.033 131.495C250.076 131.57 250.817 131.199 251.099 130.198C251.644 128.264 252.072 126.297 252.634 124.368C253.37 121.845 254.146 119.331 254.982 116.84C255.941 113.98 256.938 111.132 258.01 108.314C258.568 106.847 259.478 105.506 259.952 104.019C260.551 102.144 260.817 100.166 261.316 98.2554C262.095 95.2737 262.961 92.3154 263.765 89.3403C264.159 87.8793 264.445 86.3874 264.872 84.9366C265.471 82.8966 266.156 80.8821 266.805 78.8565C267.181 77.6805 267.521 76.4904 267.96 75.3378C268.072 75.0438 268.496 74.8683 268.777 74.6385C268.968 74.9532 269.335 75.2781 269.318 75.5808C269.259 76.6131 269.12 77.6496 268.911 78.6633C268.188 82.1646 267.429 85.659 266.67 89.1528C265.57 94.2165 264.522 99.2925 263.318 104.332C262.874 106.19 262.036 107.953 261.405 109.769C260.759 111.628 260.08 113.48 259.537 115.37C258.784 117.991 258.145 120.645 257.456 123.284C256.706 126.159 255.854 129.012 255.247 131.916C254.969 133.242 255.153 134.669 255.165 136.049C255.188 138.467 255.403 140.897 255.233 143.301C255.058 145.784 253.65 146.823 251.128 146.65C248.276 146.453 245.43 146.173 242.582 145.929C238.218 145.556 233.875 145.673 229.528 146.257C228.38 146.411 227.164 145.977 225.985 146.005C223.374 146.068 220.767 146.325 218.157 146.366C215.681 146.404 213.201 146.183 210.726 146.229C207.88 146.282 205.038 146.591 202.193 146.628C198.458 146.675 194.722 146.525 190.987 146.534C187.671 146.542 184.354 146.735 181.04 146.688C178.324 146.65 175.612 146.245 172.897 146.24C167.978 146.231 163.06 146.468 158.141 146.468C154.903 146.468 151.665 146.222 148.426 146.111C147.489 146.079 147.133 145.548 147.318 144.752C148.089 141.427 148.829 138.089 149.803 134.821C150.028 134.064 151.028 133.293 151.842 133.001C154.201 132.154 156.646 131.852 159.201 132.179C161.005 132.41 162.866 132.176 164.701 132.188C167.362 132.206 170.024 132.285 172.685 132.281C173.759 132.279 174.834 132.124 175.925 132.038C175.045 127.286 171.37 122.407 165.55 124.487C163.506 125.218 161.379 125.754 159.407 126.641C156.804 127.811 154.208 129.07 151.816 130.61C149.881 131.856 148.284 133.615 146.478 135.073C144.548 136.632 142.494 138.039 140.6 139.639C139.476 140.589 138.591 141.818 137.533 142.854C136.898 143.477 136.136 143.972 135.431 144.524C135.289 144.429 135.147 144.335 135.005 144.241C135.245 143.279 135.232 142.135 135.769 141.386C139.051 136.804 142.219 132.045 146.932 128.791C149.562 126.975 152.5 125.543 155.434 124.245C158.778 122.765 162.249 121.558 165.715 120.376C166.957 119.953 168.337 119.876 169.665 119.779C170.802 119.695 171.334 119.253 171.173 118.09C171.131 117.795 171.053 117.483 171.107 117.201C171.927 112.93 171.215 108.725 170.588 104.516C170.239 102.167 169.998 99.7941 169.483 97.482C168.808 94.4421 168.034 91.4115 167.077 88.4499C165.954 84.9747 164.653 81.5517 163.293 78.1608C162.823 76.9905 161.93 75.9933 161.254 74.9022C160.321 73.3959 159.378 71.8938 158.497 70.3566C157.541 68.6871 156.681 66.9624 155.718 65.2974C155.38 64.7142 154.903 64.1943 154.418 63.7176C149.502 58.8852 144.822 53.7696 139.553 49.3572C136.346 46.6713 132.286 44.9562 128.495 43.0305C125.696 41.6091 122.773 40.3704 119.795 39.3822C116.693 38.3529 113.405 38.1798 110.145 37.8306C107.235 37.5189 105.605 38.316 104.766 41.0643C104.337 42.4701 103.667 43.8006 103.17 45.1878C101.929 48.6468 99.4809 51.3264 97.1919 54.0396C95.3847 56.1816 93.0978 57.933 90.9483 59.7693C87.6759 62.565 84.4692 65.4666 80.9844 67.9755C78.3894 69.8439 75.4071 71.1777 72.5811 72.7203C70.3599 73.9329 68.1195 75.1113 65.8749 76.2804C65.3601 76.5486 64.7934 76.7169 64.2495 76.9287C62.3646 77.6628 60.5163 78.5166 58.5861 79.1013C55.467 80.046 52.2909 80.802 49.1457 81.6624C48.2874 81.8973 47.4651 82.2651 46.6047 82.4898C45.9003 82.6737 45.1674 82.7703 44.4411 82.8444C42.7596 83.0157 41.5347 84.0945 41.1069 85.7943C40.2438 89.2242 40.7349 92.7093 40.8681 96.1449C41.0262 100.227 41.0013 104.256 40.5066 108.32C40.1616 111.153 40.2564 114.046 40.2465 116.912C40.2321 121.071 40.3593 125.231 40.3137 129.389C40.2807 132.392 40.044 135.393 39.9384 138.397C39.8712 140.306 39.5388 142.29 39.9294 144.112C40.5351 146.936 41.427 149.753 42.6144 152.384C44.2461 156 46.0698 159.565 48.1827 162.917C49.947 165.716 52.2147 168.203 54.3198 170.78C55.5468 172.281 56.9706 173.624 58.1682 175.147C60.6873 178.35 63.6972 180.971 67.1052 183.18C69.2271 184.556 71.3598 185.936 73.3416 187.5C75.2655 189.018 77.5017 189.026 79.7016 189.165C83.3454 189.395 87.0006 189.569 90.6498 189.554C92.9628 189.543 95.2752 189.157 97.5858 188.917C98.7303 188.798 99.4392 189.566 99.4047 190.415C99.3666 191.354 98.5083 191.743 97.4043 191.689C93.12 191.482 88.8288 191.273 84.5418 191.297C79.9557 191.323 75.372 191.694 70.785 191.757C67.6623 191.801 64.5363 191.528 61.4106 191.481C57.6993 191.424 53.9868 191.45 50.2749 191.453C48.4509 191.454 46.6272 191.488 44.8032 191.499C43.2837 191.509 41.7639 191.523 40.2444 191.508C38.8296 191.495 37.8732 190.599 37.8453 189.193C37.7469 184.238 37.5954 179.282 37.6368 174.329C37.6569 171.914 38.112 169.505 38.2629 167.087C38.3298 166.015 38.0055 164.918 38.0739 163.846C38.3358 159.732 37.8474 155.649 37.7049 151.552C37.5984 148.491 37.7418 145.422 37.7118 142.357C37.6845 139.564 37.5084 136.772 37.5165 133.979C37.5267 130.436 37.7688 126.891 37.7022 123.35C37.6416 120.139 37.2603 116.935 37.0962 113.724C36.9522 110.91 36.9276 108.089 36.8247 105.273C36.6516 100.533 36.4878 95.7924 36.2271 91.0572C36.201 90.5847 35.5902 89.8392 35.1486 89.7546C34.011 89.5368 32.8077 89.5287 31.6494 89.6385C31.32 89.6697 30.81 90.3867 30.8013 90.798C30.741 93.6198 30.8259 96.444 30.7983 99.267C30.7695 102.236 30.5958 105.205 30.6165 108.173C30.6396 111.506 30.9711 114.843 30.8754 118.17C30.7455 122.675 30.3084 127.171 30.0669 131.675C30.0012 132.898 30.2082 134.134 30.2169 135.364C30.2451 139.285 30.2364 143.206 30.2469 147.127C30.2541 149.882 29.9973 152.671 30.3435 155.382C30.8811 159.595 29.8242 163.858 31.032 168.058C31.434 169.456 30.8451 171.11 30.945 172.632C31.0671 174.493 31.5564 176.331 31.6704 178.192C31.8162 180.57 31.7469 182.961 31.7673 185.347C31.7733 186.035 31.6311 186.758 31.7952 187.404C32.3295 189.509 32.4042 191.539 31.9029 193.706C31.6101 194.971 32.2125 196.419 32.2581 197.79C32.4369 203.155 32.5599 208.521 32.6922 213.887C32.7522 216.32 32.8272 218.753 32.8236 221.186C32.8143 227.203 32.757 233.219 32.7318 239.236C32.7123 243.897 32.6748 248.558 32.7168 253.219C32.7456 256.397 32.9601 259.574 32.9733 262.753C32.9823 264.879 32.7936 267.007 32.6664 269.133C32.6496 269.415 32.5428 269.755 32.3553 269.952C32.0073 270.317 31.5687 270.595 31.1679 270.909C30.8985 270.53 30.4557 270.178 30.3912 269.766C30.1608 268.293 30.0078 266.804 29.9202 265.315C29.8008 263.281 29.7126 261.242 29.7108 259.205C29.7078 255.926 29.8116 252.647 29.8158 249.368C29.8173 248.279 29.5596 247.188 29.5776 246.101C29.6685 240.581 29.8851 235.062 29.9097 229.542C29.9268 225.718 29.7039 221.893 29.5875 218.068C29.5134 215.636 29.487 213.201 29.3493 210.772C29.2113 208.342 28.8387 205.921 28.7919 203.492C28.7334 200.463 28.9503 197.429 28.9542 194.398C28.956 192.879 28.6995 191.362 28.6473 189.842C28.5489 186.97 28.4502 184.096 28.4739 181.224C28.4907 179.189 28.6737 177.152 28.8459 175.121C28.998 173.327 28.8273 171.636 28.1598 169.918C27.768 168.909 27.8736 167.673 27.8955 166.543C27.9618 163.139 28.1232 159.737 28.1991 156.333C28.3011 151.754 28.4139 147.174 28.4181 142.595C28.4223 138.093 28.3548 133.589 28.2057 129.091C28.1214 126.547 27.663 124.012 27.6318 121.47C27.5748 116.817 27.7284 112.162 27.7587 107.507C27.7827 103.848 27.7035 100.187 27.7647 96.5292C27.8085 93.9078 27.933 91.2819 28.1802 88.6731C28.2633 87.7974 28.8348 86.9676 29.3928 85.6047ZM200.434 135.095C200.432 135.172 200.429 135.249 200.427 135.326C200.128 135.326 199.828 135.329 199.529 135.326C197.158 135.302 196.484 135.914 196.523 138.329C196.545 139.712 196.693 141.113 196.987 142.463C197.091 142.942 197.759 143.602 198.224 143.649C201.086 143.939 203.962 144.179 206.836 144.233C209.1 144.275 211.372 143.897 213.636 143.936C217.205 143.999 220.769 144.33 224.338 144.408C227.699 144.482 231.033 144.1 234.432 144.56C238.915 145.167 243.437 144.341 247.932 143.983C248.671 143.924 249.895 143.357 249.983 142.862C250.325 140.945 250.395 138.959 250.342 137.004C250.329 136.509 249.553 135.734 249.011 135.614C247.823 135.351 246.56 135.361 245.329 135.377C242.315 135.415 239.302 135.589 236.289 135.579C232.886 135.568 229.484 135.354 226.081 135.341C222.705 135.327 219.326 135.538 215.95 135.496C210.777 135.432 205.606 135.235 200.434 135.095ZM65.9937 188.964C66.0444 188.765 66.0951 188.566 66.1458 188.368C65.9586 188.102 65.8125 187.792 65.5779 187.578C62.775 185.023 59.9859 182.452 57.138 179.948C54.6666 177.776 52.3413 175.493 50.6454 172.637C50.3169 172.083 49.8921 171.588 49.5234 171.057C48.1743 169.117 46.7037 167.247 45.5154 165.212C43.9251 162.489 42.5592 159.635 41.0847 156.844C40.9515 156.592 40.7289 156.387 40.2891 155.836C40.1241 156.653 39.9534 157.159 39.93 157.671C39.8226 160.036 39.7461 162.403 39.6807 164.77C39.6588 165.563 39.6549 166.362 39.7263 167.15C39.9 169.067 40.2924 170.978 40.2924 172.892C40.2921 177.539 40.1235 182.185 40.0116 186.831C39.9852 187.931 40.8627 188.93 41.9979 189.013C43.6812 189.137 45.3672 189.359 47.0493 189.338C53.3646 189.257 59.679 189.095 65.9937 188.964ZM188.107 143.55C189.061 143.607 190.041 143.708 191.022 143.711C192.069 143.714 192.873 143.328 192.949 142.116C193.03 140.829 193.085 139.54 193.185 138.254C193.354 136.065 192.749 135.517 190.576 135.694C188.167 135.89 185.749 136.094 183.337 136.076C177.047 136.029 170.758 135.828 164.469 135.759C161.397 135.725 158.323 135.818 155.252 135.923C154.603 135.945 153.665 136.063 153.373 136.489C152.088 138.362 150.882 140.31 149.867 142.341C149.281 143.515 149.877 144.355 150.994 144.317C153.166 144.242 155.335 144.1 157.506 144.001C160.077 143.885 162.648 143.763 165.221 143.692C165.956 143.672 166.695 143.87 167.433 143.877C169.547 143.896 171.663 143.887 173.778 143.855C177.242 143.802 180.707 143.731 184.171 143.639C184.465 143.632 184.755 143.411 185.072 143.279C183.191 140.541 183.19 140.541 184.604 139.363C186.181 138.048 188.273 137.96 189.454 139.221C189.773 139.562 190.202 140.224 190.072 140.484C189.556 141.516 188.839 142.447 188.107 143.55ZM194.204 128.513C194.146 129.829 193.956 131.027 195.246 131.245C195.778 131.335 196.758 130.668 197.024 130.104C198.185 127.644 199.204 125.113 200.189 122.575C201.553 119.063 202.864 115.529 204.155 111.989C205.174 109.193 206.117 106.37 207.118 103.568C208.624 99.3522 210.159 95.1471 211.666 90.9324C212.467 88.6941 213.214 86.4366 214.025 84.2022C214.868 81.8811 215.773 79.5828 216.609 77.2593C216.704 76.9944 216.598 76.3905 216.466 76.3518C215.362 76.0275 214.214 75.5628 213.111 75.6357C212.515 75.675 211.837 76.6005 211.462 77.2746C211.089 77.946 211.124 78.8295 210.852 79.5732C209.778 82.5042 208.609 85.401 207.56 88.3404C206.2 92.1504 204.951 95.9997 203.599 99.8124C202.231 103.671 200.768 107.496 199.398 111.353C198.392 114.186 197.618 117.11 196.467 119.879C195.263 122.773 194.461 125.716 194.204 128.513ZM179.206 125.539C179.043 125.69 178.88 125.841 178.717 125.993C179.423 127.804 179.983 129.697 180.928 131.373C181.191 131.839 182.738 132.002 183.431 131.698C184.306 131.315 183.75 130.465 183.268 129.826C182.548 128.873 181.975 127.8 181.186 126.915C180.666 126.331 179.876 125.989 179.206 125.539ZM97.9401 5.22932C98.0868 5.49722 98.1525 5.82512 98.3175 5.88692C100.454 6.68612 102.631 7.23782 104.921 6.62522C105.141 6.56642 105.297 6.26882 105.483 6.08222C105.252 5.87942 105.039 5.52692 104.788 5.49722C102.744 5.25452 100.694 5.06192 98.6433 4.88792C98.4456 4.87112 98.2284 5.08292 97.9401 5.22932Z" fill="black"/>
<path d="M163.817 254.222C163.817 255.254 163.854 255.906 163.809 256.552C163.728 257.729 163.162 258.061 162.32 257.245C161.531 256.48 160.882 255.454 160.487 254.422C159.635 252.197 158.99 249.894 158.252 247.625C158.099 247.151 157.98 246.648 157.727 246.23C157.495 245.849 157.103 245.564 156.782 245.237C156.589 245.657 156.259 246.067 156.227 246.498C156.144 247.632 156.183 248.776 156.188 249.916C156.201 253.41 156.224 256.904 156.233 260.398C156.233 260.641 156.19 260.904 156.092 261.125C155.092 263.365 150.822 264.678 148.661 263.531C146.517 262.392 146.402 260.42 146.345 258.412C146.266 255.636 146.243 252.859 146.227 250.082C146.211 247.365 146.245 244.647 146.237 241.93C146.228 238.631 146.179 235.332 146.184 232.033C146.188 229.604 146.202 227.174 146.301 224.747C146.475 220.453 145.826 216.541 142.584 213.264C140.515 211.172 138.95 208.589 137.068 206.3C136.038 205.047 134.869 203.893 133.655 202.816C133.298 202.499 132.498 202.401 132.044 202.575C131.762 202.683 131.649 203.488 131.631 203.987C131.477 208.384 131.363 212.783 131.23 217.181C131.208 217.928 131.116 218.673 131.111 219.419C131.093 222.493 131.025 225.569 131.106 228.641C131.254 234.226 131.581 239.808 131.666 245.393C131.723 249.211 131.443 253.033 131.416 256.854C131.4 259.268 131.457 261.695 131.696 264.095C131.897 266.111 131.191 268.016 129.464 269.072C127.605 270.207 125.683 270.9 123.433 270.329C121.37 269.806 120.672 268.806 120.688 266.639C120.715 262.929 120.554 259.218 120.518 255.507C120.488 252.297 120.554 249.086 120.522 245.876C120.485 242.265 120.364 238.655 120.327 235.044C120.315 233.913 120.362 232.765 120.546 231.652C121.327 226.951 119.833 222.386 119.789 217.745C119.762 214.871 120.008 211.995 120.135 209.12C120.17 208.326 120.237 207.534 120.247 206.74C120.263 205.545 119.814 204.729 118.489 204.578C117.197 204.431 116.706 203.701 116.963 202.393C117.22 201.09 118.071 200.872 119.176 201.024C119.664 201.091 120.143 201.265 120.63 201.287C123.085 201.4 123.795 202.011 123.834 204.499C123.905 208.948 123.941 213.4 123.852 217.848C123.746 223.145 123.324 228.44 123.362 233.734C123.387 237.029 123.109 240.314 123.479 243.648C123.851 247.005 123.32 250.459 123.235 253.872C123.18 256.1 123.218 258.331 123.208 260.561C123.2 262.144 123.249 263.732 123.144 265.31C123.061 266.555 123.607 267.391 124.852 267.557C126.482 267.774 127.55 267.158 127.584 265.802C127.645 263.396 127.547 260.987 127.565 258.579C127.588 255.376 127.69 252.173 127.694 248.969C127.696 247.738 127.394 246.5 127.455 245.276C127.59 242.566 128.054 239.862 128.045 237.157C128.032 233.255 127.655 229.357 127.557 225.454C127.5 223.175 127.765 220.889 127.742 218.607C127.71 215.534 127.424 212.46 127.466 209.389C127.502 206.672 127.817 203.958 128.065 201.248C128.102 200.842 128.367 200.388 128.66 200.087C129.503 199.223 129.24 198.462 128.508 197.766C126.76 196.105 124.885 194.565 123.251 192.8C122.309 191.782 121.23 191.654 120.048 191.548C119.458 191.495 118.819 191.62 118.285 191.43C117.863 191.28 117.239 190.73 117.278 190.432C117.404 189.458 117.514 188.11 118.153 187.674C118.86 187.191 120.42 187.144 121.13 187.62C124.704 190.018 128.417 192.224 131.369 195.498C133.888 198.293 136.878 200.66 139.441 203.42C141.795 205.957 143.908 208.726 146.022 211.473C146.793 212.475 147.329 213.679 147.858 214.843C149.763 219.036 152.749 222.625 154.288 227.054C155.976 231.911 158.209 236.576 160.037 241.387C161.372 244.899 162.469 248.503 163.597 252.089C163.845 252.876 163.775 253.762 163.817 254.222ZM148.799 226.292C148.891 228.065 149.045 229.252 148.991 230.43C148.919 232.001 148.536 233.565 148.546 235.13C148.578 240.125 148.76 245.118 148.825 250.113C148.862 252.965 148.668 255.823 148.8 258.668C148.884 260.477 149.687 261.039 151.242 260.954C152.559 260.882 153.575 259.707 153.573 258.191C153.566 253.785 153.544 249.379 153.515 244.973C153.498 242.26 153.654 239.527 153.377 236.84C153.03 233.48 152.231 230.18 150.36 227.274C150.115 226.894 149.526 226.735 148.799 226.292Z" fill="black"/>
<path d="M182.779 262.95C186.616 261.976 190.32 261.285 193.847 260.078C197.97 258.667 201.996 256.972 205.596 254.359C207.216 253.184 209.275 252.634 211.055 251.654C215.033 249.463 218.553 246.694 221.442 243.148C222.222 242.191 223.244 241.432 224.034 240.481C227.256 236.597 230.49 232.72 233.582 228.734C234.399 227.682 234.709 226.242 235.281 224.994C235.953 223.525 236.834 222.126 237.31 220.598C238.263 217.537 238.996 214.454 238.2 211.157C237.435 207.986 235.391 206.666 232.395 206.088C229.864 205.6 227.534 206.07 225.276 207.04C222.972 208.029 220.759 209.228 218.472 210.259C218.046 210.452 217.276 210.481 216.997 210.225C216.734 209.983 216.711 209.141 216.934 208.78C217.496 207.865 218.127 206.902 218.965 206.27C220.378 205.203 220.996 203.869 221.042 202.177C221.153 198.066 221.263 193.955 221.376 189.844C221.384 189.544 221.303 189.183 221.44 188.958C221.817 188.339 222.204 187.387 222.737 187.273C223.827 187.04 223.868 188.061 223.899 188.885C224.043 192.671 224.254 196.456 224.321 200.243C224.368 202.873 225.615 203.766 227.884 202.498C228.381 202.221 228.877 201.446 228.895 200.886C229.013 197.211 228.994 193.532 229.038 189.855C229.043 189.375 229 188.778 229.255 188.449C229.532 188.092 230.134 187.831 230.592 187.833C230.838 187.834 231.263 188.46 231.293 188.83C231.395 190.06 231.346 191.302 231.371 192.54C231.427 195.314 231.448 198.091 231.6 200.861C231.626 201.341 232.123 201.96 232.573 202.213C233.288 202.617 234.133 202.82 234.945 203.012C236.494 203.379 237.169 202.772 237.152 201.176C237.111 197.267 237.066 193.357 237.076 189.448C237.081 187.39 238.444 186.393 240.35 187.105C240.88 187.304 241.539 187.995 241.58 188.506C241.703 190.028 241.501 191.573 241.512 193.109C241.546 198.037 241.613 202.964 241.686 207.891C241.691 208.228 241.775 208.609 241.95 208.891C243.96 212.118 243.305 215.403 242.278 218.738C241.89 219.997 241.596 221.316 241.5 222.625C241.313 225.192 241.242 227.772 241.219 230.347C241.168 235.783 241.27 241.222 241.13 246.655C241.055 249.568 240.511 252.468 240.36 255.383C240.235 257.795 240.412 260.222 240.389 262.642C240.373 264.355 239.809 264.779 238.171 264.763C235.374 264.735 232.575 264.866 229.78 264.795C227.579 264.74 225.376 264.544 223.189 264.285C222.202 264.167 221.452 263.58 221.39 262.412C221.224 259.253 221.04 256.096 220.838 252.94C220.795 252.275 220.642 251.618 220.541 250.957C219.932 251.243 219.287 251.47 218.72 251.823C215.188 254.02 211.791 256.469 208.117 258.393C204.93 260.062 201.446 261.17 198.076 262.48C196.013 263.281 193.947 264.1 191.826 264.719C189.781 265.316 187.676 265.957 185.575 266.05C183.132 266.158 181.737 265.511 182.779 262.95ZM236.676 232.059C236.235 232.619 235.965 232.933 235.728 233.269C234.616 234.848 233.456 236.397 232.433 238.032C231.924 238.844 231.399 239.803 231.352 240.721C231.17 244.219 231.135 247.728 231.132 251.233C231.129 254.072 231.239 256.912 231.32 259.751C231.371 261.58 232.214 262.357 234.053 262.314C234.84 262.296 235.627 262.246 236.414 262.241C237.591 262.232 238.186 261.522 238.244 260.482C238.331 258.92 238.315 257.343 238.214 255.78C238.075 253.612 237.791 251.454 237.616 249.287C237.514 248.022 237.489 246.75 237.453 245.48C237.43 244.64 237.388 243.793 237.459 242.958C237.764 239.393 237.511 235.879 236.676 232.059ZM228.73 243.716C225.869 244.742 224.433 246.604 224.408 249.087C224.373 252.605 224.447 256.125 224.456 259.644C224.463 262.442 224.721 262.605 227.446 261.958C228.634 261.676 229.033 261.085 228.814 259.948C228.72 259.459 228.595 258.961 228.6 258.469C228.636 254.836 228.698 251.204 228.762 247.572C228.767 247.276 228.889 246.98 228.88 246.686C228.853 245.754 228.789 244.823 228.73 243.716Z" fill="black"/>
<path d="M34.4154 268.962C37.7127 268.417 37.3545 267.591 37.1601 264.848C37.062 263.466 37.1583 262.071 37.1703 260.682C37.1925 258.115 37.2312 255.549 37.2378 252.982C37.2447 250.251 37.215 247.52 37.2144 244.789C37.2138 242.119 37.1934 239.448 37.2531 236.779C37.2828 235.453 37.5318 234.134 37.5768 232.808C37.6455 230.79 37.6569 228.769 37.632 226.75C37.5873 223.133 37.4643 219.517 37.4379 215.9C37.4184 213.235 37.4391 210.567 37.5594 207.906C37.6419 206.078 37.8201 204.238 38.1843 202.451C38.2947 201.909 39.1506 201.148 39.6954 201.122C45.6339 200.838 51.5589 200.522 57.5217 201.19C60.7839 201.556 64.1421 201.017 67.4583 200.958C70.6569 200.902 73.857 200.959 77.0562 200.927C79.4187 200.903 81.7818 200.746 84.1428 200.776C87.3525 200.816 90.5604 200.994 93.7698 201.076C94.9752 201.107 96.1854 201.07 97.3893 200.997C98.5728 200.925 99.201 201.492 99.2922 202.603C99.3864 203.749 98.8455 204.338 97.6158 204.354C92.9739 204.417 88.3332 204.575 83.6913 204.611C79.404 204.645 75.1158 204.562 70.8279 204.541C68.4075 204.529 68.1057 204.961 68.1105 207.299C68.1159 209.975 67.8894 212.651 67.7847 215.327C67.6767 218.085 67.7091 220.853 67.4709 223.599C67.1721 227.041 68.0961 230.391 68.0499 233.786C68.0082 236.855 67.491 239.916 67.3467 242.988C67.2396 245.264 67.3947 247.554 67.4319 249.837C67.458 251.453 67.5339 253.071 67.4964 254.686C67.4163 258.134 67.2786 261.581 67.1595 265.029C67.1457 265.425 67.1388 265.826 67.0647 266.213C66.6654 268.295 65.9715 268.814 63.8622 268.494C62.8836 268.345 61.8702 268.162 60.9885 267.748C60.5301 267.533 60.0444 266.779 60.0477 266.272C60.0744 262.001 60.2409 257.731 60.3006 253.459C60.3249 251.718 60.1995 249.973 60.1239 248.231C59.973 244.75 59.7567 241.271 59.6664 237.789C59.5728 234.182 59.6262 230.572 59.5617 226.965C59.475 222.107 59.3169 217.251 59.232 212.393C59.2026 210.709 59.3052 209.021 59.3391 207.335C59.3943 204.576 58.5705 204.211 56.664 204.254C53.3046 204.331 49.9425 204.292 46.5816 204.298C45.0096 204.301 43.4352 204.246 41.8662 204.317C40.9035 204.36 40.4922 204.837 40.5198 205.968C40.6941 213.102 40.7799 220.238 40.8555 227.374C40.8936 230.971 40.8138 234.568 40.8552 238.165C40.8804 240.342 41.0898 242.517 41.1183 244.695C41.1495 247.068 41.0631 249.442 41.0361 251.816C41.0103 254.088 41.0091 256.359 40.9719 258.631C40.9242 261.543 40.8903 264.457 40.7772 267.367C40.6899 269.616 39.7371 271.015 38.1759 271.146C36.5598 271.281 35.4285 270.396 34.4154 268.962ZM61.8015 262.777C61.7406 262.777 61.6797 262.778 61.6188 262.779C61.6533 263.261 61.707 263.743 61.7187 264.225C61.7505 265.529 62.3553 266.372 63.7059 266.261C65.0067 266.154 65.5173 265.346 65.4252 263.979C65.2338 261.137 65.1921 258.285 65.0706 255.438C65.0304 254.499 64.8762 253.563 64.8735 252.625C64.8627 248.939 64.9587 245.252 64.8846 241.567C64.827 238.693 64.5207 235.824 64.4385 232.949C64.4046 231.764 64.7892 230.569 64.7742 229.382C64.7214 225.178 64.5837 220.976 64.4637 216.774C64.4454 216.135 64.2936 215.497 64.2999 214.86C64.3281 212.041 64.4439 209.221 64.3944 206.404C64.3854 205.893 63.7521 205.394 63.4068 204.89C63.0957 205.421 62.5221 205.949 62.5143 206.485C62.445 211.309 62.4975 216.134 62.4687 220.959C62.4474 224.546 61.8861 228.207 62.4327 231.7C62.9781 235.185 62.3406 238.529 62.3202 241.925C62.2953 246.042 61.503 250.136 61.7673 254.296C61.9461 257.112 61.8015 259.949 61.8015 262.777Z" fill="black"/>
<path d="M183.395 214.472C182.247 213.015 182.453 211.329 184.071 209.893C187.523 206.828 191.327 204.199 195.56 202.422C197.26 201.709 199.514 201.827 201.405 202.174C204.111 202.669 206.474 203.984 208.013 206.544C209.105 208.362 209.718 210.169 209.477 212.298C209.351 213.412 209.771 214.659 209.422 215.663C208.274 218.966 206.817 222.161 205.613 225.446C204.536 228.383 202.725 230.839 200.802 233.218C198.103 236.556 195.17 239.712 192.581 243.13C190.28 246.17 187.68 248.866 184.79 251.315C184.41 251.637 184.06 252.06 183.617 252.22C183.282 252.341 182.668 252.262 182.447 252.023C181.779 251.3 181.877 249.032 182.612 248.287C184.63 246.241 186.76 244.303 188.736 242.219C191.606 239.192 194.478 236.156 197.149 232.957C198.231 231.661 198.718 229.885 199.596 228.398C200.978 226.06 202.368 223.715 203.928 221.494C206.127 218.362 205.754 215.026 205.054 211.608C204.716 209.958 204.219 208.333 202.657 207.484C201.624 206.924 200.393 206.404 199.257 206.418C195.777 206.461 192.784 207.928 190.016 210.001C187.886 211.596 185.606 212.991 183.395 214.472Z" fill="black"/>
<path d="M69.3912 129.468C69.7131 127.018 70.0281 124.567 70.3605 122.119C70.4898 121.166 70.8711 120.236 71.9565 120.31C73.0221 120.384 73.266 121.397 73.3899 122.311C73.9077 126.126 74.3535 129.952 74.9364 133.757C75.3396 136.387 75.6708 139.073 76.4883 141.586C77.6508 145.159 78.9408 148.751 80.7027 152.054C83.0604 156.473 85.4001 161.052 89.9616 163.773C92.2323 165.127 94.6737 166.018 97.32 166.407C99.5331 166.732 100.304 168.06 99.8496 170.252C99.6627 171.153 99.0414 171.414 98.307 171.257C92.7321 170.065 87.3435 168.542 83.3136 164.042C79.674 159.978 76.7463 155.573 74.6925 150.455C72.2547 144.379 70.9173 138.065 69.6045 131.718C69.4554 130.998 69.5115 130.234 69.4722 129.491C69.4452 129.483 69.4182 129.475 69.3912 129.468Z" fill="black"/>
<path d="M139.285 106.315C139.017 102.343 138.731 98.3727 138.496 94.3992C138.441 93.4719 138.538 92.5335 138.601 91.6023C138.867 87.6168 139.13 83.6313 139.434 79.6485C139.507 78.6828 139.541 77.6451 139.923 76.7871C140.594 75.2814 142.022 75.1608 142.847 76.5933C143.514 77.751 143.843 79.1355 144.153 80.4591C144.608 82.4052 144.8 84.4161 145.31 86.3451C145.97 88.8402 146.552 91.2621 146.242 93.9231C146.018 95.8548 146.49 97.866 146.638 99.8427C146.825 102.351 147.149 104.861 147.125 107.367C147.108 109.119 146.681 110.882 146.3 112.61C145.974 114.094 144.936 115.07 143.438 115.281C142.019 115.481 141.256 114.577 140.582 113.368C139.343 111.146 139.127 108.77 139.285 106.315Z" fill="black"/>
<path d="M115.459 105.344C115.777 102.49 116.124 99.7839 116.366 97.0686C116.533 95.2011 116.483 93.3135 116.657 91.4469C117.025 87.4983 117.424 83.5512 117.922 79.6176C118.076 78.4032 118.732 77.2629 120.124 77.1099C121.537 76.9545 122.249 78.0876 122.518 79.1766C123 81.1308 123.254 83.1498 123.484 85.1553C123.672 86.8041 123.799 88.4757 123.757 90.132C123.661 93.8769 123.48 97.6209 123.259 101.361C123.155 103.107 122.837 104.839 122.692 106.584C122.542 108.408 122.546 110.246 122.361 112.066C122.238 113.285 121.616 114.292 120.262 114.414C119.1 114.519 118.125 114.277 117.41 113.048C115.981 110.591 115.746 107.909 115.459 105.344Z" fill="black"/>
<path d="M230.591 220.67C231.532 221.205 232.323 221.491 232.894 222.016C233.882 222.923 233.458 224.562 232.147 224.571C229.169 224.593 227.925 226.937 226.213 228.613C223.318 231.446 220.51 234.373 217.743 237.332C214.426 240.878 210.315 243.354 206.338 246.019C203.049 248.223 199.78 250.46 196.471 252.634C195.646 253.177 194.729 253.622 193.795 253.938C193.374 254.081 192.576 253.962 192.369 253.667C192.137 253.335 192.175 252.458 192.453 252.191C193.44 251.241 194.502 250.318 195.676 249.625C198.489 247.964 201.535 246.661 204.203 244.805C207.601 242.441 210.827 239.795 213.924 237.042C216.428 234.815 218.695 232.306 220.949 229.816C223.071 227.473 224.944 224.901 227.122 222.617C227.975 221.722 229.361 221.335 230.591 220.67Z" fill="black"/>
<path d="M87.3873 116.695C87.5541 117.269 87.8022 117.832 87.8748 118.417C88.5408 123.776 89.0343 129.162 89.8689 134.495C90.456 138.246 92.4624 141.471 94.5633 144.59C94.8342 144.992 95.2908 145.458 95.2446 145.845C95.1552 146.595 94.9296 147.469 94.4343 147.968C94.2123 148.191 92.9769 147.839 92.5887 147.402C88.1685 142.434 85.434 136.701 85.2594 129.962C85.1775 126.806 85.2804 123.635 85.5018 120.485C85.593 119.191 86.2176 117.933 86.5995 116.659C86.862 116.671 87.1248 116.683 87.3873 116.695Z" fill="black"/>
<path d="M125.767 136.028C124.369 135.715 123.363 135.603 122.441 135.263C119.382 134.135 116.264 133.103 113.352 131.664C112.034 131.012 111.146 129.489 110.067 128.358C109.249 127.501 108.399 126.671 107.64 125.765C107.269 125.322 106.858 124.735 106.854 124.21C106.849 123.563 107.078 122.587 107.52 122.357C107.955 122.13 108.948 122.477 109.407 122.892C110.727 124.086 111.706 125.764 113.18 126.657C115.3 127.942 117.693 128.831 120.054 129.644C121.909 130.283 123.915 130.469 125.805 131.023C126.616 131.261 127.518 131.775 127.978 132.44C128.336 132.958 128.381 134.158 128.015 134.603C127.426 135.32 126.384 135.664 125.767 136.028Z" fill="black"/>
<path d="M228.556 111.116C228.839 106.158 229.398 101.578 231.926 97.5697C232.745 96.2701 234.113 95.2852 235.341 94.2949C235.672 94.0282 236.413 94.2697 236.965 94.2781C236.94 94.837 236.938 95.3986 236.875 95.9533C236.855 96.1303 236.71 96.3511 236.556 96.4459C234.278 97.855 233.683 100.336 232.777 102.561C231.754 105.076 230.939 107.68 230.144 110.279C229.79 111.441 230.337 112.429 231.362 113.064C232.351 113.677 233.167 113.328 233.839 112.475C235.416 110.474 236.743 108.34 237.232 105.792C237.479 104.502 237.569 103.174 237.917 101.915C238.052 101.427 238.707 101.083 239.125 100.673C239.388 101.095 239.949 101.587 239.869 101.928C238.785 106.529 237.663 111.128 234.79 115.04C234.115 115.959 233.4 116.769 232.068 116.354C230.516 115.871 229.255 115.067 228.872 113.37C228.683 112.531 228.629 111.661 228.556 111.116Z" fill="black"/>
<path d="M183.977 237.21C184.379 236.177 184.685 235.092 185.209 234.125C185.77 233.09 186.532 232.162 187.215 231.194C189.293 228.245 191.172 225.124 193.524 222.413C195.206 220.475 197.481 219.032 199.586 217.498C200.105 217.12 201.133 216.956 201.677 217.216C202.373 217.549 203.046 218.34 203.273 219.074C203.391 219.46 202.629 220.264 202.104 220.673C200.75 221.725 199.332 222.702 197.894 223.638C194.988 225.529 192.926 228.267 190.665 230.795C188.967 232.694 187.447 234.752 185.807 236.704C185.477 237.098 184.963 237.339 184.533 237.651C184.348 237.504 184.162 237.357 183.977 237.21Z" fill="black"/>
<path d="M112.281 139.622C110.161 139.286 107.427 137.152 107.1 135.352C107.032 134.979 107.221 134.372 107.503 134.174C107.827 133.946 108.451 133.892 108.831 134.045C110.216 134.599 111.646 135.133 112.87 135.955C113.522 136.393 114.14 137.426 114.104 138.157C114.077 138.674 112.928 139.135 112.281 139.622Z" fill="black"/>
<path d="M162.258 189.383C162.014 188.827 161.771 188.269 161.528 187.713C161.828 187.599 162.127 187.485 162.427 187.372C162.634 187.944 162.84 188.517 163.047 189.09C162.784 189.187 162.521 189.286 162.258 189.383Z" fill="black"/>
</svg>
