<svg xmlns="http://www.w3.org/2000/svg" width="600" height="600" fill="none"><path fill="#000" d="M275.903 359.42c0 3.871-.007 7.741.003 11.611.004 1.693.036 3.385.067 5.078.03 1.68.148 3.363.094 5.041-.103 3.255-.355 6.506-.435 9.762-.038 1.525.207 3.056.276 4.587.038.83-.033 1.665-.037 2.498-.027 6.904.144 13.817-.141 20.71-.194 4.693-.601 9.351.184 14.024.155.92.067 1.898-.027 2.838-.153 1.534-1.71 2.792-3.528 2.877-3.82.177-7.641.327-11.461.476-1.424.055-2.896-1.024-2.895-2.453.002-2.402.317-4.803.438-7.206.077-1.532.044-3.068.055-4.603.034-5.157.117-10.314.08-15.471-.024-3.437-.229-6.872-.336-10.308-.085-2.705-.224-5.411-.193-8.116.038-3.314.285-6.625.337-9.94a934.28 934.28 0 0 0 .103-15.794c-.002-2.887-.437-5.813-.093-8.65.362-2.988-.405-6.009.726-9.009.586-1.555.184-3.524.066-5.295-.256-3.875-.624-7.742-.927-11.614-.075-.953-.553-1.373-1.484-1.552-2.299-.441-3.554-1.923-3.476-4.36.1-3.13.358-6.258.628-9.38.109-1.27 1.752-2.444 3.17-2.465 3.732-.056 7.465-.195 11.196-.167 3.352.026 6.702.261 10.055.333.983.021 1.971-.21 2.959-.303.388-.036.791-.07 1.171-.007 5.185.851 10.402.4 15.605.373 5.24-.027 10.479-.191 15.718-.325 3.41-.087 6.819-.338 10.228-.312 3.392.026 6.783.427 10.175.443 3.312.014 6.625-.336 9.939-.37 3.553-.037 7.108.133 10.662.158 1.191.008 2.388-.266 3.573-.214 3.169.14 6.333.516 9.501.556 3.956.05 7.939-.449 11.864-.138 3.457.274 6.865.05 10.296.064 2.246.01 4.487.548 6.734.575 1.899.024 3.801-.367 5.705-.534a40.974 40.974 0 0 1 3.095-.133c5.059-.06 10.119-.176 15.177-.132 4.846.043 9.69.25 14.534.406.789.025 1.585.107 2.36.256 2.148.415 3.206 1.436 3.291 3.525.123 3.045.772 6.067 1.078 9.111.065.641-.186 1.553-.636 1.961-1.336 1.212-1.789 2.641-1.719 4.37.15 3.677.309 7.355.342 11.034.014 1.481-.333 2.961-.443 4.447-.319 4.308-.589 8.619-.901 12.927-.265 3.658-.659 7.285-.243 10.989.261 2.316-.371 4.717-.38 7.081-.012 2.897.26 5.794.317 8.692.101 5.096.192 10.193.173 15.289-.015 3.82-.247 7.638-.315 11.458-.053 3.066.016 6.133-.008 9.199-.029 3.614-.777 7.216-.01 10.852.215 1.018-.105 2.152-.196 3.231-.049.587-.24 1.183-.177 1.754.19 1.718-.111 2.286-1.843 2.462-1.822.185-3.666.158-5.5.225-1.372.051-2.744.145-4.116.144-1.782-.002-3.59.096-5.336-.176-1.453-.227-1.821-1.609-1.835-2.908-.019-1.682.085-3.366.179-5.046.15-2.664.414-5.323.484-7.989.079-3.02-.037-6.044-.005-9.066.043-4.05.216-8.101.196-12.15-.01-2.076-.441-4.149-.462-6.226-.034-3.314.144-6.629.176-9.944.018-1.83-.105-3.66-.121-5.49-.033-3.926-.073-7.853-.044-11.778.032-4.345.175-8.689.197-13.034.012-2.392-.427-2.717-2.821-2.698-3.522.029-7.044-.027-10.566.033-2.862.048-5.722.275-8.584.294-.962.006-1.928-.571-2.89-.565-4.222.026-8.443.264-12.664.24-3.524-.02-7.046-.374-10.572-.431-2.188-.035-4.381.307-6.572.304-3.861-.006-7.722-.17-11.584-.215-.937-.011-1.878.272-2.817.264-2.127-.017-4.252-.16-6.38-.195-2.121-.034-2.478.085-2.611 2.112-.241 3.648-.151 7.316-.26 10.974-.063 2.126-.267 4.247-.366 6.373-.127 2.712-.253 5.426-.304 8.14-.071 3.762-.168 7.527-.08 11.287.144 6.105.502 12.206.623 18.312.06 3.014-.386 6.041-.281 9.051.128 3.664-.288 7.263-.626 10.886-.103 1.111.191 2.265.347 3.393.227 1.634-.233 2.167-1.911 2.207-3.075.075-6.15.252-9.223.223-1.718-.016-3.439-.321-5.148-.57-1.291-.188-1.604-1.251-1.7-2.317-.365-4.061-.805-8.121-.957-12.192-.086-2.317.405-4.65.507-6.981.11-2.515.074-5.036.094-7.555.022-2.67.084-5.342.042-8.011-.049-3.167-.238-6.332-.274-9.499-.028-2.469.113-4.941.128-7.412.013-1.981-.061-3.964-.078-5.946-.023-2.627.093-5.262-.071-7.88-.203-3.244.742-6.495-.197-9.744-.247-.854.031-1.878.148-2.814.156-1.253-.572-1.865-1.605-1.869-2.569-.009-5.138.18-7.708.243-.819.02-1.646-.075-2.463-.173-5.126-.621-10.263-.548-15.401-.221-2.523.16-5.04.478-7.564.534-1.609.036-3.223-.339-4.84-.415-1.977-.094-3.967-.164-5.933-.012-.392.03-.859 1.072-1.008 1.713-.176.753-.042 1.578-.042 2.372l.328.001Zm60.682-30.153-.008.127c-.848 0-1.724-.129-2.535.044-.596.126-1.396.534-1.59 1.021-.293.739-.222 1.663-.158 2.496.319 4.192.69 8.38 1.035 12.57.096 1.175.331 2.371.209 3.527-.277 2.63.458 3.613 3.102 3.741.448.021.899-.011 1.349-.018 4.997-.079 9.995-.207 14.992-.22 3.076-.009 6.154.243 9.23.226 4.938-.028 9.875-.211 14.813-.272 5.239-.065 10.48-.01 15.719-.107 4.055-.074 8.106-.337 12.161-.448a120.81 120.81 0 0 1 7.47.013c3.419.118 6.832.426 10.251.514 3.36.087 6.725.011 10.087-.012 2.667-.017 3.114-.461 3.241-3.102.012-.245.08-.488.123-.732.253-1.406.656-2.805.723-4.219.106-2.226-.046-4.463-.033-6.695.014-2.414.166-4.83.119-7.242-.032-1.636-.851-2.124-2.538-2.03-1.77.1-3.549.023-5.322.066-.742.017-1.483.134-2.223.222-1.128.133-2.251.36-3.382.399-1.49.051-2.986-.098-4.477-.061-2.371.059-4.76.439-7.104.242-2.465-.208-4.871-.344-7.319.091-1.205.214-2.46.2-3.692.2-1.634.001-3.267-.102-4.901-.131-1.885-.033-3.775.038-5.656-.069-2.364-.134-4.719-.556-7.08-.578-3.958-.036-7.918.18-11.878.222-2.113.023-4.228-.126-6.342-.138-1.481-.008-2.963.121-4.444.126-2.824.01-5.649-.08-8.471-.022-2.501.051-4.999.238-7.498.387-.439.027-.876.246-1.308.228-2.223-.096-4.443-.24-6.665-.366Zm-63.573-.361v-.047c-2.987 0-5.975.003-8.963-.001-1.54-.002-1.965.547-1.981 2.111-.019 1.934-.197 3.867-.317 5.8-.131 2.122-.373 4.244-.383 6.367-.011 2.413.173 4.828.288 7.241.049 1.031.402 1.962 1.563 2.04 1.858.124 3.727.082 5.591.124 2.832.065 5.668.269 8.495.186 5.305-.155 10.603-.566 15.908-.677 2.152-.046 4.314.592 6.473.603 2.919.016 5.841-.413 8.76-.395 3.601.022 7.198.363 10.8.46 2.658.071 5.323.016 7.981-.065 2.134-.064 2.657-.797 2.649-2.939-.015-3.723.104-7.448.123-11.172a168.61 168.61 0 0 0-.119-7.823c-.016-.381-.572-1.037-.914-1.061-3.908-.275-7.82-.531-11.735-.63-3.314-.083-6.633.076-9.949.073-2.588-.002-5.176-.05-7.761-.149-2.409-.093-4.815-.278-7.222-.43-1.379-.088-2.764-.314-4.136-.251-1.328.06-2.638.573-3.963.604-3.728.088-7.458.031-11.188.031Zm131.539-4.02.001.313c1.671 0 3.343.003 5.015-.001 4.47-.011 8.94-.023 13.41-.041.837-.003 1.753-.26 2.497-.006 3.89 1.329 7.889-.009 11.82.599 1.824.283 2.565-.813 2.295-2.717-.27-1.901-.503-3.834-1.067-5.655-.212-.685-1.295-1.532-2.003-1.553-2.511-.076-5.032.176-7.549.298-3.361.162-6.723.446-10.084.445-4.521-.002-9.042-.189-13.56-.373-1.72-.071-3.432-.509-5.147-.505-3.903.009-7.806.251-11.71.283-5.319.043-10.64-.092-15.958-.014-3.305.048-6.605.351-9.908.535-.893.05-1.789.143-2.68.118-3.659-.103-7.317-.284-10.976-.357-3.569-.071-7.14-.108-10.706-.002-.573.017-1.599.855-1.599 1.313 0 1.932.227 3.878.561 5.786.087.495.833 1.202 1.327 1.245 3.736.33 7.491.11 11.245.596 2.609.337 5.316-.172 7.978-.147 4.237.039 8.472.257 12.709.305 2.998.034 6.017-.335 8.989-.08 4.027.345 7.997.324 11.978-.334.679-.113 1.388-.049 2.084-.05 3.679-.003 7.359-.001 11.038-.001Zm-84.228.188.003-.151c1.332-.093 2.662-.239 3.995-.269 2.43-.055 4.864.01 7.291-.099.461-.02 1.205-.545 1.291-.95.391-1.842.708-3.716.825-5.593.093-1.467-.646-2.116-2.097-2.083-1.631.036-3.258.229-4.888.29-2.81.103-5.62.204-8.431.219-2.961.015-5.922-.089-8.883-.106-1.685-.01-3.378.16-5.055.055-2.816-.176-5.618-.642-8.434-.733-2.644-.085-5.299.155-7.949.258-2.907.114-5.813.294-8.72.341-4.757.076-9.516.06-14.273.097-2.08.017-4.165-.012-6.238.132-1.409.098-2.01 1.035-1.791 2.494.234 1.557.65 3.095.767 4.658.096 1.274.768 1.625 1.828 1.659 2.88.094 5.759.212 8.639.244 5.069.056 10.139.026 15.208.097 1.527.021 3.054.392 4.576.364 3.603-.064 7.203-.314 10.806-.413 7.176-.197 14.353-.344 21.53-.511Zm10.424 48.768c-.404-5.671-.91-10.731-.022-15.805.133-.76-.055-2.18-.441-2.317-1.281-.455-2.753-.704-4.083-.525-.546.073-1.262 1.422-1.307 2.223-.159 2.87-.077 5.753-.06 8.631.014 2.311.114 4.623.082 6.932-.015 1.017-.56 2.095-.355 3.034 1.037 4.762.499 9.562.529 14.344.024 3.918-.126 7.838-.127 11.757-.001 2.859.174 5.718.161 8.577-.012 2.515-.58 5.095-.186 7.531.821 5.089.197 10.11-.089 15.152-.064 1.112-.099 1.905 1.131 2.131 2.02.373 4.254-.513 4.382-1.683.011-.099.009-.199.01-.299.021-1.292.025-2.585.065-3.877.089-2.866.235-5.73.283-8.596.047-2.778.017-5.557-.009-8.335-.028-3.02-.153-6.041-.118-9.059.028-2.411.271-4.819.336-7.231.024-.88-.279-1.766-.28-2.65-.003-3.121.078-6.243.094-9.365.019-3.725.004-7.451.004-10.57ZM260.9 429.23l.165.023c.095.988.037 2.026.336 2.948.202.622.941 1.551 1.382 1.52 1.192-.083 2.916.747 3.413-1.196.25-.979.274-2.03.298-3.05.066-2.797.128-5.596.096-8.393-.024-2.027-.224-4.052-.296-6.08-.03-.831.127-1.668.101-2.499-.096-3.065-.317-6.128-.328-9.193-.009-2.355.291-4.709.337-7.065.065-3.377.082-6.757.012-10.133-.068-3.258-.403-6.513-.383-9.768.023-3.616.412-7.228.457-10.845.031-2.512-.377-5.03-.35-7.543.023-2.13.048-2.298-2.019-2.637-.295-.049-.593-.078-.888-.129-1.076-.185-1.776.148-1.825 1.342-.049 1.179-.069 2.359-.113 3.537-.13 3.491-.361 6.98-.367 10.471-.004 2.469.416 4.939.428 7.409.024 4.514-.137 9.03-.177 13.545-.046 5.137.861 10.242.075 15.422-.494 3.258-.313 6.626-.322 9.945-.003 1.168.502 2.341.471 3.504-.076 2.957-.324 5.91-.503 8.865Zm174.249-68.647c-.145-1.118-.232-2.557-.538-3.949-.364-1.656-1.886-1.246-2.96-1.229-.425.007-1.142.968-1.194 1.543-.152 1.712-.08 3.45-.024 5.175.131 4.049.37 8.096.433 12.146.031 1.965-.238 3.934-.365 5.902-.131 2.015-.383 4.032-.35 6.044.042 2.525.495 5.048.458 7.567-.068 4.692-.403 9.38-.539 14.071-.045 1.571.249 3.148.265 4.723.048 4.64.065 9.28.034 13.92-.022 3.238-.028 6.484-.269 9.709-.122 1.634.865 2.404 1.885 2.587 1.441.257 2.817-.521 3.144-1.853.216-.88.142-1.832.197-2.751.121-1.984.392-3.972.33-5.95-.128-4.043-.523-8.078-.644-12.121-.128-4.33-.058-8.666-.094-12.999-.016-2.075-.111-4.15-.107-6.225.005-2.911.045-5.823.114-8.734.06-2.502.233-5.002.256-7.503.017-1.856-.18-3.713-.185-5.57-.004-2.157.123-4.313.147-6.47.027-2.571.006-5.143.006-8.033ZM333.101 431.94l.26-.003c-.032.684-.19 1.392-.067 2.048.2 1.064 1.917 1.781 3.629 1.644 1.302-.104 1.646-1 1.625-2.084-.04-2.068-.136-4.135-.239-6.2-.098-1.983-.254-3.964-.351-5.947-.084-1.721-.184-3.445-.165-5.167.035-3.023.156-6.045.242-9.068.011-.385.057-.771.043-1.155-.076-2.158-.28-4.319-.228-6.474.114-4.75.433-9.497.507-14.248.032-2.063-.416-4.129-.496-6.2-.079-2.057.07-4.122.048-6.183-.029-2.763-.175-5.525-.176-8.288-.001-2.269.11-4.539.222-6.807.096-1.947-.544-2.634-2.514-2.561-.196.007-.39.08-.587.088-1.673.07-2.027.617-1.843 2.202.265 2.298.469 4.616.485 6.927.026 4-.118 8.001-.181 12.002-.06 3.762-.145 7.523-.152 11.285-.008 3.833.436 7.675-.267 11.494-.043.236.04.494.055.743.197 3.266.48 6.531.546 9.801.029 1.408-.564 2.824-.577 4.239-.031 3.49.128 6.982.175 10.473.033 2.479.006 4.96.006 7.439Zm90.092-26.416h-.347c0 3.195-.026 6.39.007 9.585.04 3.805.132 7.609.2 11.413.037 2.088.006 4.179.128 6.262.097 1.679.32 3.357.593 5.018.241 1.464 1.392 1.337 2.462 1.177 1.077-.161 1.098-.909 1.007-1.8-.124-1.231-.203-2.476-.164-3.71.12-3.851.416-7.699.439-11.549.03-4.986-.11-9.973-.229-14.959-.117-4.835-.334-9.668-.43-14.504-.025-1.264.37-2.536.341-3.799-.068-2.991-.348-5.978-.406-8.969-.06-3.119.03-6.241.074-9.361.021-1.391.099-2.78.139-4.17.074-2.623.213-5.247.168-7.867-.016-.905-.234-2.137-.838-2.611-.643-.505-1.868-.428-2.806-.32-.362.041-.891.862-.903 1.338-.05 2.072-.157 4.183.158 6.218.86 5.558.259 11.131.364 16.692.163 8.636.043 17.277.043 25.916Zm-154.518 25.04c.084.717.003 1.236.214 1.57.357.56.883 1.379 1.368 1.4.611.027 1.338-.549 1.851-1.037.302-.289.392-.911.396-1.384.027-3.555.071-7.112-.012-10.666-.099-4.257-.393-8.509-.464-12.766-.06-3.576.098-7.154.125-10.731.023-3.01.038-6.023-.031-9.032-.027-1.178-.453-2.355-.423-3.525.08-3.113.369-6.221.464-9.334.125-4.074.168-8.152.197-12.228a96.77 96.77 0 0 0-.15-5.726c-.059-1.141-.676-1.916-1.891-1.875-1.335.046-1.366 1.112-1.373 2.079-.035 4.743-.129 9.487-.047 14.227.095 5.428.898 10.819-.026 16.29-.467 2.761.067 5.689.123 8.543.067 3.465.152 6.932.148 10.398-.003 3.323-.086 6.646-.178 9.968-.048 1.737-.25 3.471-.278 5.208-.048 2.961-.013 5.925-.013 8.621Z"/><path fill="#000" d="M188.393 253.605c-1.529 0-2.96-.083-4.378.018-2.559.181-5.109.825-7.656-.151-.423-.162-.971-.02-1.459.009-2.295.135-4.496-.27-6.654-.937l-.079-.546c1.079-.301 2.14-.756 3.239-.878 6.738-.746 13.507-1.249 20.218-2.177 3.812-.527 7.522-1.766 11.3-2.581 3.719-.804 7.48-1.413 11.196-2.23 2.406-.529 4.738-1.208 6.865-2.657 2.373-1.616 5.021-2.828 7.53-4.249 2.793-1.581 5.679-3.034 8.319-4.843 3.499-2.396 6.836-5.038 10.167-7.669 1.316-1.038 2.519-2.256 3.619-3.525 3.057-3.528 5.972-7.166 7.624-11.622.156-.42.356-.839.419-1.275.193-1.338-.495-1.85-1.756-1.383-4.966 1.839-10.125 2.508-15.393 2.836-4.864.303-9.835.264-14.42 2.368-3.857 1.769-7.704 3.561-11.555 5.344-1.712.792-3.398 1.645-5.14 2.367-3.806 1.576-7.362 3.584-10.754 5.916-.966.664-2.068 1.164-3.166 1.589-.471.182-1.09-.018-1.642-.044.131-.594.062-1.411.43-1.743 1.208-1.09 2.503-2.123 3.896-2.962 2.524-1.521 5.182-2.82 7.709-4.337 1.996-1.199 3.856-2.62 5.821-3.874.745-.476 1.638-.717 2.417-1.149.673-.374 1.281-.867 1.917-1.307l-.206-.435c-1.756-.111-3.523-.14-5.268-.35-4.247-.513-8.336-.038-12.148 1.947-2.449 1.275-4.829 2.695-7.18 4.146-2.663 1.645-5.332 3.297-7.868 5.127a183.697 183.697 0 0 0-9.549 7.353c-4.153 3.432-7.824 7.358-11.147 11.6-1.231 1.572-2.579 2.351-3.241 1.647-1.14-1.213.049-2.415.609-3.291 1.679-2.62 3.549-5.136 5.522-7.546 1.238-1.512 2.817-2.741 4.208-4.133 2.204-2.205 4.327-4.493 6.587-6.639 1.111-1.056 2.394-1.959 3.695-2.779 3.383-2.131 6.813-4.188 10.241-6.247.501-.301 1.098-.439 1.642-.671.93-.397 1.854-.809 2.781-1.214l-.092-.588c-.366-.138-.734-.401-1.098-.395-4.154.067-7.577-2.115-11.235-3.586-2.811-1.131-5.269-2.816-7.606-4.689a10.527 10.527 0 0 1-1.998-2.153c-.207-.294.039-.907.079-1.375.432.105 1.037.064 1.268.339 2.068 2.45 4.775 4.023 7.571 5.392 1.48.725 3.185 1.026 4.817 1.394 1.285.289 2.623.341 3.922.58 3.095.572 6.165 1.312 9.278 1.754 2.388.34 4.825.352 7.242.469 4.097.199 8.197.532 12.292.491 3.151-.032 6.298-.551 9.446-.858.442-.043.882-.149 1.324-.159 2.867-.06 5.736-.043 8.6-.168 2.369-.104 4.712-.347 6.874-1.555.79-.441 1.826-.437 2.744-.658 1.733-.416 3.467-.83 5.189-1.29.329-.088.602-.387.902-.588-.253-.271-.456-.658-.768-.793-1.731-.754-3.52-1.378-5.23-2.174-3.479-1.618-7.085-2.816-10.865-3.456-3.949-.667-7.888-1.461-11.866-1.864-4.293-.435-8.623-.529-12.94-.684a451.056 451.056 0 0 0-12.31-.251c-1.585-.014-3.173.217-4.759.207-.633-.004-1.265-.359-1.898-.554l.03-.663c1.335-.39 2.65-.884 4.01-1.148 3.109-.605 6.225-1.375 9.368-1.562 3.454-.205 6.94.198 10.414.277 1.53.034 3.063-.071 4.594-.128 2.664-.1 5.252.362 7.857.873 3.527.692 7.106 1.12 10.642 1.77 1.744.32 3.44.896 5.164 1.332.421.107.867.116 1.301.17l.269-.433c-1.174-.851-2.319-1.745-3.53-2.537-.811-.53-1.804-.802-2.563-1.387-2.373-1.828-5.146-2.761-7.945-3.555a183.491 183.491 0 0 0-11.489-2.855c-2.409-.517-4.879-.882-7.336-.998-2.664-.125-5.345.142-8.019.191-1.123.021-2.257-.192-3.371-.104-5.155.408-10.302.819-15.339 2.172-4.632 1.245-9.345 2.183-13.995 3.362-1.414.358-2.735 1.076-4.105 1.612-.447.174-.916.295-1.406.45-.714-1.87.771-2.679 1.706-3.145 4.446-2.219 8.614-5.084 13.729-5.813 6.071-.865 12.089-2.144 18.176-2.859 4.619-.543 9.278-.685 13.979-.354 5.001.352 9.748 1.667 14.549 2.812 1.802.43 3.477 1.384 5.213 2.091.952.388 1.924.73 2.865 1.143 2.215.972 4.483 1.851 6.605 2.999 2.465 1.333 4.79 2.925 7.191 4.379.485.293 1.04.472 1.906.477-.37-1.147-.656-2.33-1.127-3.434-1.081-2.531-2.272-5.016-3.363-7.543-.15-.349.017-.835.037-1.258.467.027 1.063-.119 1.375.115a11.775 11.775 0 0 1 2.125 2.036c3.009 3.755 4.882 8.117 6.606 12.555.304.782.644 1.553 1.025 2.3.137.269.459.644.669.627.266-.021.556-.357.741-.623.159-.229.232-.546.266-.833.382-3.235.709-6.477 1.136-9.706.215-1.623.58-3.228.924-4.831.447-2.086-.116-2.768-2.16-2.995-4.178-.466-8.404-.821-12.19-2.92-1.913-1.062-2.086-3.957-.184-5.142 1.12-.697 2.537-1.14 3.857-1.247 3.07-.25 6.162-.264 9.245-.291.931-.009 1.879.189 2.793.404 1.738.409 2.46 1.794 2.74 3.347.621 3.429.909 6.879.016 10.323-.098.38-.091.787-.144 1.18-.438 3.288-.853 6.581-1.329 9.864-.302 2.078-.71 4.141-1.043 6.215-.175 1.091.176 1.753 1.397 2.019 4.132.9 8.304 1.695 12.342 2.922 4.149 1.262 8.182 2.924 12.214 4.542 1.22.489 2.244 1.451 3.397 2.131 5.252 3.099 10.046 6.76 13.913 11.517 1.984 2.442 3.832 4.994 5.764 7.478 1.367 1.757 2.861 3.422 4.129 5.245 1.068 1.535 1.971 3.201 2.809 4.877 1.479 2.958 2.976 5.918 4.229 8.974.91 2.217 1.443 4.589 2.137 6.895.541 1.794 1.137 3.575 1.59 5.392.66 2.646 1.391 5.293 1.767 7.986.47 3.367.631 6.778.886 10.173.182 2.423.282 4.852.454 7.276.069.974.57 1.522 1.636 1.548 2.055.052 4.051.273 5.637 1.868.421.423 1.153.532 1.734.804 2.129.996 4.225 2.075 6.406 2.942.455.181 1.556-.236 1.777-.673a37.987 37.987 0 0 0 2.234-5.398c1.126-3.468 2.125-6.978 3.153-10.477.514-1.751.979-3.515 1.455-5.276.13-.481.187-.983.335-1.458 1.683-5.39 3.351-10.785 5.076-16.163a510.232 510.232 0 0 1 3.947-11.803c.305-.877.817-1.715 1.386-2.453.29-.375.912-.672 1.396-.691 4.004-.163 8.01-.335 12.016-.333 2.517 0 5.033.316 7.552.451 2.41.129 4.822.265 7.234.285 1.484.012 2.974-.316 4.454-.264 3.083.109 6.166.323 9.241.578 3.684.304 7.362.681 11.038 1.069.459.049.89.362 1.335.553l-.041.594c-1.554.264-3.101.692-4.663.757-3.261.136-6.529.109-9.794.095-4.851-.021-9.701-.077-14.552-.139-3.073-.039-6.146-.162-9.22-.156-1.523.003-3.049.182-4.569.338-1.123.115-1.676.822-1.996 1.901-1.183 3.996-2.33 8.009-3.701 11.942-1.87 5.367-3.904 10.677-5.925 15.99-1.143 3.005-2.441 5.951-3.596 8.951-1.811 4.707-3.58 9.43-5.326 14.161-.68 1.842-.329 2.452 1.609 2.466 2.673.02 5.347-.202 8.022-.266 1.445-.035 2.892.034 4.337.072 3.582.094 7.165.158 10.744.314 2.216.097 4.429.514 6.638.479 4.548-.071 9.091-.361 13.638-.532a30.257 30.257 0 0 1 3.285.064c1.043.075 1.784-.296 2.066-1.297.545-1.934.973-3.901 1.535-5.83a197.443 197.443 0 0 1 2.348-7.528c.959-2.86 1.956-5.708 3.028-8.526.558-1.467 1.468-2.808 1.942-4.295.599-1.875.865-3.853 1.364-5.764.779-2.981 1.645-5.94 2.449-8.915.394-1.461.68-2.953 1.107-4.403.599-2.04 1.284-4.055 1.933-6.08.376-1.176.716-2.367 1.155-3.519.112-.294.536-.47.817-.699.191.314.558.639.541.942a21.335 21.335 0 0 1-.407 3.082c-.723 3.502-1.482 6.996-2.241 10.49-1.1 5.064-2.148 10.14-3.352 15.179-.444 1.858-1.282 3.621-1.913 5.437-.646 1.859-1.325 3.711-1.868 5.601-.753 2.621-1.392 5.275-2.081 7.914-.75 2.875-1.602 5.728-2.209 8.632-.278 1.326-.094 2.753-.082 4.133.023 2.418.238 4.848.068 7.252-.175 2.483-1.583 3.522-4.105 3.349-2.852-.197-5.698-.477-8.546-.721a59.564 59.564 0 0 0-13.054.328c-1.148.154-2.364-.28-3.543-.252-2.611.063-5.218.32-7.828.361-2.476.038-4.956-.183-7.431-.137-2.846.053-5.688.362-8.533.399-3.735.047-7.471-.103-11.206-.094-3.316.008-6.633.201-9.947.154-2.716-.038-5.428-.443-8.143-.448-4.919-.009-9.837.228-14.756.228-3.238 0-6.476-.246-9.715-.357-.937-.032-1.293-.563-1.108-1.359.771-3.325 1.511-6.663 2.485-9.931.225-.757 1.225-1.528 2.039-1.82 2.359-.847 4.804-1.149 7.359-.822 1.804.231 3.665-.003 5.5.009 2.661.018 5.323.097 7.984.093 1.074-.002 2.149-.157 3.24-.243-.88-4.752-4.555-9.631-10.375-7.551-2.044.731-4.171 1.267-6.143 2.154-2.603 1.17-5.199 2.429-7.591 3.969-1.935 1.246-3.532 3.005-5.338 4.463-1.93 1.559-3.984 2.966-5.878 4.566-1.124.95-2.009 2.179-3.067 3.215-.635.623-1.397 1.118-2.102 1.67l-.426-.283c.24-.962.227-2.106.764-2.855 3.282-4.582 6.45-9.341 11.163-12.595 2.63-1.816 5.568-3.248 8.502-4.546 3.344-1.48 6.815-2.687 10.281-3.869 1.242-.423 2.622-.5 3.95-.597 1.137-.084 1.669-.526 1.508-1.689-.042-.295-.12-.607-.066-.889.82-4.271.108-8.476-.519-12.685-.349-2.349-.59-4.722-1.105-7.034-.675-3.04-1.449-6.07-2.406-9.032-1.123-3.475-2.424-6.898-3.784-10.289-.47-1.17-1.363-2.168-2.039-3.259-.933-1.506-1.876-3.008-2.757-4.545-.956-1.67-1.816-3.395-2.779-5.06-.338-.583-.815-1.103-1.3-1.579-4.916-4.833-9.596-9.948-14.865-14.361-3.207-2.686-7.267-4.401-11.058-6.326a63.285 63.285 0 0 0-8.7-3.649c-3.102-1.029-6.39-1.202-9.65-1.551-2.91-.312-4.54.485-5.379 3.233-.429 1.406-1.099 2.737-1.596 4.124-1.241 3.459-3.689 6.138-5.978 8.852-1.807 2.142-4.094 3.893-6.244 5.729-3.272 2.796-6.479 5.698-9.964 8.207-2.595 1.868-5.577 3.202-8.403 4.744a387.03 387.03 0 0 1-6.706 3.56c-.515.269-1.082.437-1.625.649-1.885.734-3.734 1.588-5.664 2.172-3.119.945-6.295 1.701-9.44 2.561-.859.235-1.681.603-2.541.828-.705.184-1.438.28-2.164.354-1.681.172-2.906 1.251-3.334 2.95-.863 3.43-.372 6.915-.239 10.351.158 4.082.133 8.111-.361 12.175-.345 2.833-.251 5.726-.26 8.592-.015 4.159.112 8.319.067 12.477-.033 3.003-.27 6.004-.376 9.008-.067 1.909-.399 3.893-.009 5.715.606 2.824 1.498 5.641 2.685 8.272 1.632 3.616 3.456 7.181 5.569 10.533 1.764 2.799 4.032 5.286 6.137 7.863 1.227 1.501 2.651 2.844 3.848 4.367 2.519 3.203 5.529 5.824 8.937 8.033 2.122 1.376 4.255 2.756 6.237 4.32 1.923 1.518 4.16 1.526 6.36 1.665 3.643.23 7.299.404 10.948.389 2.313-.011 4.625-.397 6.936-.637 1.144-.119 1.853.649 1.819 1.498-.038.939-.897 1.328-2.001 1.274-4.284-.207-8.575-.416-12.862-.392-4.586.026-9.17.397-13.757.46-3.123.044-6.249-.229-9.374-.276-3.712-.057-7.424-.031-11.136-.028-1.824.001-3.648.035-5.472.046-1.519.01-3.039.024-4.559.009-1.414-.013-2.371-.909-2.399-2.315-.098-4.955-.25-9.911-.208-14.864.02-2.415.475-4.824.626-7.242.067-1.072-.257-2.169-.189-3.241.262-4.114-.227-8.197-.369-12.294-.107-3.061.037-6.13.007-9.195-.028-2.793-.204-5.585-.196-8.378.011-3.543.253-7.088.186-10.629-.06-3.211-.442-6.415-.606-9.626-.144-2.814-.168-5.635-.271-8.451-.173-4.74-.337-9.481-.598-14.216-.026-.472-.637-1.218-1.078-1.302-1.138-.218-2.341-.226-3.5-.116-.329.031-.839.748-.848 1.159-.06 2.822.025 5.646-.003 8.469-.028 2.969-.202 5.938-.181 8.906.023 3.333.354 6.67.258 9.997-.13 4.505-.567 9.001-.808 13.505-.066 1.223.141 2.459.15 3.689.028 3.921.019 7.842.03 11.763.007 2.755-.25 5.544.097 8.255.537 4.213-.52 8.476.688 12.676.402 1.398-.187 3.052-.087 4.574.122 1.861.611 3.699.725 5.56.146 2.378.077 4.769.097 7.155.006.688-.136 1.411.028 2.057.535 2.105.609 4.135.108 6.302-.293 1.265.31 2.713.355 4.084.179 5.365.302 10.731.434 16.097.06 2.433.135 4.866.132 7.299-.01 6.017-.067 12.033-.092 18.05-.02 4.661-.057 9.322-.015 13.983.029 3.178.243 6.355.256 9.534.009 2.126-.179 4.254-.307 6.38-.016.282-.123.622-.311.819-.348.365-.786.643-1.187.957-.269-.379-.712-.731-.777-1.143a46.759 46.759 0 0 1-.471-4.451c-.119-2.034-.207-4.073-.209-6.11-.003-3.279.101-6.558.105-9.837.001-1.089-.256-2.18-.238-3.267.09-5.52.307-11.039.332-16.559.017-3.824-.206-7.649-.322-11.474-.075-2.432-.101-4.867-.239-7.296-.138-2.43-.51-4.851-.557-7.28-.059-3.029.158-6.063.162-9.094.002-1.519-.254-3.036-.307-4.556-.098-2.872-.197-5.746-.173-8.618.017-2.035.2-4.072.372-6.103.152-1.794-.019-3.485-.686-5.203-.392-1.009-.286-2.245-.265-3.375.067-3.404.228-6.806.304-10.21.102-4.579.215-9.159.219-13.738.004-4.502-.063-9.006-.212-13.504-.085-2.544-.543-5.079-.574-7.621-.057-4.653.096-9.308.127-13.963.024-3.659-.055-7.32.006-10.978.044-2.621.168-5.247.415-7.856.083-.876.655-1.705 1.213-3.068Zm171.041 49.49-.007.231c-.299 0-.599.003-.898 0-2.371-.024-3.045.588-3.006 3.003.022 1.383.17 2.784.464 4.134.104.479.772 1.139 1.237 1.186 2.862.29 5.738.53 8.612.584 2.264.042 4.536-.336 6.8-.297 3.569.063 7.133.394 10.702.472 3.361.074 6.695-.308 10.094.152 4.483.607 9.005-.219 13.5-.577.739-.059 1.963-.626 2.051-1.121.342-1.917.412-3.903.359-5.858-.013-.495-.789-1.27-1.331-1.39-1.188-.263-2.451-.253-3.682-.237-3.014.038-6.027.212-9.04.202-3.403-.011-6.805-.225-10.208-.238-3.376-.014-6.755.197-10.131.155-5.173-.064-10.344-.261-15.516-.401Zm-134.44 53.869.152-.596c-.187-.266-.334-.576-.568-.79-2.803-2.555-5.592-5.126-8.44-7.63-2.471-2.172-4.797-4.455-6.493-7.311-.328-.554-.753-1.049-1.122-1.58-1.349-1.94-2.819-3.81-4.008-5.845-1.59-2.723-2.956-5.577-4.43-8.368-.133-.252-.356-.457-.796-1.008-.165.817-.336 1.323-.359 1.835a400.045 400.045 0 0 0-.249 7.099c-.022.793-.026 1.592.045 2.38.174 1.917.566 3.828.566 5.742 0 4.647-.168 9.293-.28 13.939-.027 1.1.851 2.099 1.986 2.182 1.683.124 3.369.346 5.051.325 6.316-.081 12.63-.243 18.945-.374Zm122.113-45.414c.954.057 1.934.158 2.915.161 1.047.003 1.851-.383 1.927-1.595.081-1.287.136-2.576.236-3.862.169-2.189-.436-2.737-2.609-2.56-2.409.196-4.827.4-7.239.382-6.29-.047-12.579-.248-18.868-.317-3.072-.034-6.146.059-9.217.164-.649.022-1.587.14-1.879.566-1.285 1.873-2.491 3.821-3.506 5.852-.586 1.174.01 2.014 1.127 1.976 2.172-.075 4.341-.217 6.512-.316 2.571-.116 5.142-.238 7.715-.309.735-.02 1.474.178 2.212.185 2.114.019 4.23.01 6.345-.022 3.464-.053 6.929-.124 10.393-.216.294-.007.584-.228.901-.36-1.881-2.738-1.882-2.738-.468-3.916 1.577-1.315 3.669-1.403 4.85-.142.319.341.748 1.003.618 1.263-.516 1.032-1.233 1.963-1.965 3.066Zm6.097-15.037c-.058 1.316-.248 2.514 1.042 2.732.532.09 1.512-.577 1.778-1.141 1.161-2.46 2.18-4.991 3.165-7.529a544.856 544.856 0 0 0 3.966-10.586c1.019-2.796 1.962-5.619 2.963-8.421 1.506-4.216 3.041-8.421 4.548-12.636.801-2.238 1.548-4.495 2.359-6.73.843-2.321 1.748-4.619 2.584-6.943.095-.265-.011-.868-.143-.907-1.104-.324-2.252-.789-3.355-.716-.596.039-1.274.965-1.649 1.639-.373.671-.338 1.555-.61 2.298-1.074 2.931-2.243 5.828-3.292 8.767-1.36 3.81-2.609 7.66-3.961 11.472-1.368 3.859-2.831 7.684-4.201 11.541-1.006 2.833-1.78 5.757-2.931 8.526-1.204 2.894-2.006 5.837-2.263 8.634Zm-14.998-2.974-.489.454c.706 1.811 1.266 3.704 2.211 5.38.263.466 1.81.629 2.503.325.875-.383.319-1.233-.163-1.872-.72-.953-1.293-2.026-2.082-2.911-.52-.584-1.31-.926-1.98-1.376Zm-81.266-120.31c.147.268.213.596.378.658 2.136.799 4.313 1.351 6.603.738.22-.059.376-.356.562-.543-.231-.203-.444-.555-.695-.585a185.953 185.953 0 0 0-6.145-.609c-.197-.017-.415.195-.703.341Z"/><path fill="#000" d="M322.817 422.222c0 1.032.037 1.684-.008 2.33-.081 1.177-.647 1.509-1.489.693-.789-.765-1.438-1.791-1.833-2.823-.852-2.225-1.497-4.528-2.235-6.797-.153-.474-.272-.977-.525-1.395-.232-.381-.624-.666-.945-.993-.193.42-.523.83-.555 1.261-.083 1.134-.044 2.278-.039 3.418.013 3.494.036 6.988.045 10.482 0 .243-.043.506-.141.727-1 2.24-5.27 3.553-7.431 2.406-2.144-1.139-2.259-3.111-2.316-5.119a367.177 367.177 0 0 1-.118-8.33c-.016-2.717.018-5.435.01-8.152-.009-3.299-.058-6.598-.053-9.897.004-2.429.018-4.859.117-7.286.174-4.294-.475-8.206-3.717-11.483-2.069-2.092-3.634-4.675-5.516-6.964-1.03-1.253-2.199-2.407-3.413-3.484-.357-.317-1.157-.415-1.611-.241-.282.108-.395.913-.413 1.412-.154 4.397-.268 8.796-.401 13.194-.022.747-.114 1.492-.119 2.238-.018 3.074-.086 6.15-.005 9.222.148 5.585.475 11.167.56 16.752.057 3.818-.223 7.64-.25 11.461-.016 2.414.041 4.841.28 7.241.201 2.016-.505 3.921-2.232 4.977-1.859 1.135-3.781 1.828-6.031 1.257-2.063-.523-2.761-1.523-2.745-3.69.027-3.71-.134-7.421-.17-11.132-.03-3.21.036-6.421.004-9.631-.037-3.611-.158-7.221-.195-10.832-.012-1.131.035-2.279.219-3.392.781-4.701-.713-9.266-.757-13.907-.027-2.874.219-5.75.346-8.625.035-.794.102-1.586.112-2.38.016-1.195-.433-2.011-1.758-2.162-1.292-.147-1.783-.877-1.526-2.185.257-1.303 1.108-1.521 2.213-1.369.488.067.967.241 1.454.263 2.455.113 3.165.724 3.204 3.212.071 4.449.107 8.901.018 13.349-.106 5.297-.528 10.592-.49 15.886.025 3.295-.253 6.58.117 9.914.372 3.357-.159 6.811-.244 10.224-.055 2.228-.017 4.459-.027 6.689-.008 1.583.041 3.171-.064 4.749-.083 1.245.463 2.081 1.708 2.247 1.63.217 2.698-.399 2.732-1.755.061-2.406-.037-4.815-.019-7.223.023-3.203.125-6.406.129-9.61.002-1.231-.3-2.469-.239-3.693.135-2.71.599-5.414.59-8.119-.013-3.902-.39-7.8-.488-11.703-.057-2.279.208-4.565.185-6.847-.032-3.073-.318-6.147-.276-9.218.036-2.717.351-5.431.599-8.141.037-.406.302-.86.595-1.161.843-.864.58-1.625-.152-2.321-1.748-1.661-3.623-3.201-5.257-4.966-.942-1.018-2.021-1.146-3.203-1.252-.59-.053-1.229.072-1.763-.118-.422-.15-1.046-.7-1.007-.998.126-.974.236-2.322.875-2.758.707-.483 2.267-.53 2.977-.054 3.574 2.398 7.287 4.604 10.239 7.878 2.519 2.795 5.509 5.162 8.072 7.922 2.354 2.537 4.467 5.306 6.581 8.053.771 1.002 1.307 2.206 1.836 3.37 1.905 4.193 4.891 7.782 6.43 12.211 1.688 4.857 3.921 9.522 5.749 14.333 1.335 3.512 2.432 7.116 3.56 10.702.248.787.178 1.673.22 2.133Zm-15.018-27.93c.092 1.773.246 2.96.192 4.138-.072 1.571-.455 3.135-.445 4.7.032 4.995.214 9.988.279 14.983.037 2.852-.157 5.71-.025 8.555.084 1.809.887 2.371 2.442 2.286 1.317-.072 2.333-1.247 2.331-2.763-.007-4.406-.029-8.812-.058-13.218-.017-2.713.139-5.446-.138-8.133-.347-3.36-1.146-6.66-3.017-9.566-.245-.38-.834-.539-1.561-.982ZM341.779 430.95c3.837-.974 7.541-1.665 11.068-2.872 4.123-1.411 8.149-3.106 11.749-5.719 1.62-1.175 3.679-1.725 5.459-2.705 3.978-2.191 7.498-4.96 10.387-8.506.78-.957 1.802-1.716 2.592-2.667 3.222-3.884 6.456-7.761 9.548-11.747.817-1.052 1.127-2.492 1.699-3.74.672-1.469 1.553-2.868 2.029-4.396.953-3.061 1.686-6.144.89-9.441-.765-3.171-2.809-4.491-5.805-5.069-2.531-.488-4.861-.018-7.119.952-2.304.989-4.517 2.188-6.804 3.219-.426.193-1.196.222-1.475-.034-.263-.242-.286-1.084-.063-1.445.562-.915 1.193-1.878 2.031-2.51 1.413-1.067 2.031-2.401 2.077-4.093.111-4.111.221-8.222.334-12.333.008-.3-.073-.661.064-.886.377-.619.764-1.571 1.297-1.685 1.09-.233 1.131.788 1.162 1.612.144 3.786.355 7.571.422 11.358.047 2.63 1.294 3.523 3.563 2.255.497-.277.993-1.052 1.011-1.612.118-3.675.099-7.354.143-11.031.005-.48-.038-1.077.217-1.406.277-.357.879-.618 1.337-.616.246.001.671.627.701.997.102 1.23.053 2.472.078 3.71.056 2.774.077 5.551.229 8.321.026.48.523 1.099.973 1.352.715.404 1.56.607 2.372.799 1.549.367 2.224-.24 2.207-1.836-.041-3.909-.086-7.819-.076-11.728.005-2.058 1.368-3.055 3.274-2.343.53.199 1.189.89 1.23 1.401.123 1.522-.079 3.067-.068 4.603.034 4.928.101 9.855.174 14.782.005.337.089.718.264 1 2.01 3.227 1.355 6.512.328 9.847-.388 1.259-.682 2.578-.778 3.887-.187 2.567-.258 5.147-.281 7.722-.051 5.436.051 10.875-.089 16.308-.075 2.913-.619 5.813-.77 8.728-.125 2.412.052 4.839.029 7.259-.016 1.713-.58 2.137-2.218 2.121-2.797-.028-5.596.103-8.391.032-2.201-.055-4.404-.251-6.591-.51-.987-.118-1.737-.705-1.799-1.873-.166-3.159-.35-6.316-.552-9.472-.043-.665-.196-1.322-.297-1.983-.609.286-1.254.513-1.821.866-3.532 2.197-6.929 4.646-10.603 6.57-3.187 1.669-6.671 2.777-10.041 4.087-2.063.801-4.129 1.62-6.25 2.239-2.045.597-4.15 1.238-6.251 1.331-2.443.108-3.838-.539-2.796-3.1Zm53.897-30.891c-.441.56-.711.874-.948 1.21-1.112 1.579-2.272 3.128-3.295 4.763-.509.812-1.034 1.771-1.081 2.689-.182 3.498-.217 7.007-.22 10.512-.003 2.839.107 5.679.188 8.518.051 1.829.894 2.606 2.733 2.563.787-.018 1.574-.068 2.361-.073 1.177-.009 1.772-.719 1.83-1.759a39.239 39.239 0 0 0-.03-4.702c-.139-2.168-.423-4.326-.598-6.493-.102-1.265-.127-2.537-.163-3.807-.023-.84-.065-1.687.006-2.522.305-3.565.052-7.079-.783-10.899Zm-7.946 11.657c-2.861 1.026-4.297 2.888-4.322 5.371-.035 3.518.039 7.038.048 10.557.007 2.798.265 2.961 2.99 2.314 1.188-.282 1.587-.873 1.368-2.01-.094-.489-.219-.987-.214-1.479.036-3.633.098-7.265.162-10.897.005-.296.127-.592.118-.886-.027-.932-.091-1.863-.15-2.97ZM193.415 436.962c3.298-.545 2.94-1.371 2.745-4.114-.098-1.382-.002-2.777.01-4.166.023-2.567.061-5.133.068-7.7.007-2.731-.023-5.462-.024-8.193 0-2.67-.021-5.341.039-8.01.03-1.326.279-2.645.324-3.971.069-2.018.08-4.039.055-6.058-.045-3.617-.168-7.233-.194-10.85-.02-2.665.001-5.333.121-7.994.083-1.828.261-3.668.625-5.455.111-.542.967-1.303 1.511-1.329 5.939-.284 11.864-.6 17.827.068 3.262.366 6.62-.173 9.936-.232 3.199-.056 6.399.001 9.598-.031 2.363-.024 4.726-.181 7.087-.151 3.21.04 6.417.218 9.627.3a42.019 42.019 0 0 0 3.619-.079c1.184-.072 1.812.495 1.903 1.606.094 1.146-.446 1.735-1.676 1.751-4.642.063-9.283.221-13.925.257-4.287.034-8.575-.049-12.863-.07-2.42-.012-2.722.42-2.717 2.758.005 2.676-.222 5.352-.326 8.028-.108 2.758-.076 5.526-.314 8.272-.299 3.442.625 6.792.579 10.187-.042 3.069-.559 6.13-.703 9.202-.107 2.276.048 4.566.085 6.849.026 1.616.102 3.234.064 4.849-.08 3.448-.217 6.895-.336 10.343-.014.396-.021.797-.095 1.184-.4 2.082-1.093 2.601-3.203 2.281-.978-.149-1.992-.332-2.873-.746-.459-.215-.945-.969-.941-1.476.026-4.271.193-8.541.253-12.813.024-1.741-.101-3.486-.177-5.228-.151-3.481-.367-6.96-.458-10.442-.093-3.607-.04-7.217-.104-10.824-.087-4.858-.245-9.714-.33-14.572-.029-1.684.073-3.372.107-5.058.055-2.759-.768-3.124-2.675-3.081-3.359.077-6.721.038-10.082.044-1.572.003-3.147-.052-4.716.019-.962.043-1.374.52-1.346 1.651.174 7.134.26 14.27.336 21.406.038 3.597-.042 7.194-.001 10.791.025 2.177.235 4.352.263 6.53.032 2.373-.055 4.747-.082 7.121-.026 2.272-.027 4.543-.064 6.815-.048 2.912-.082 5.826-.195 8.736-.087 2.249-1.04 3.648-2.601 3.779-1.616.135-2.747-.75-3.761-2.184Zm27.387-6.185-.183.002c.034.482.088.964.1 1.446.032 1.304.636 2.147 1.987 2.036 1.301-.107 1.811-.915 1.719-2.282-.191-2.842-.233-5.694-.354-8.541-.041-.939-.195-1.875-.197-2.813-.011-3.686.085-7.373.011-11.058-.058-2.874-.364-5.743-.446-8.618-.034-1.185.35-2.38.335-3.567-.053-4.204-.19-8.406-.31-12.608-.019-.639-.17-1.277-.164-1.914.028-2.819.144-5.639.094-8.456-.009-.511-.642-1.01-.987-1.514-.311.531-.885 1.059-.893 1.595-.069 4.824-.016 9.649-.045 14.474-.022 3.587-.583 7.248-.036 10.741.545 3.485-.092 6.829-.113 10.225-.025 4.117-.817 8.211-.553 12.371.179 2.816.035 5.653.035 8.481Z"/><path fill="#000" d="M342.395 382.472c-1.148-1.457-.942-3.143.676-4.579 3.452-3.065 7.256-5.694 11.489-7.471 1.7-.713 3.954-.595 5.845-.248 2.706.495 5.069 1.81 6.608 4.37 1.092 1.818 1.705 3.625 1.464 5.754-.126 1.114.294 2.361-.055 3.365-1.148 3.303-2.605 6.498-3.809 9.783-1.077 2.937-2.888 5.393-4.811 7.772-2.699 3.338-5.632 6.494-8.221 9.912-2.301 3.04-4.901 5.736-7.791 8.185-.38.322-.73.745-1.173.905-.335.121-.949.042-1.17-.197-.668-.723-.57-2.991.165-3.736 2.018-2.046 4.148-3.984 6.124-6.068 2.87-3.027 5.742-6.063 8.413-9.262 1.082-1.296 1.569-3.072 2.447-4.559 1.382-2.338 2.772-4.683 4.332-6.904 2.199-3.132 1.826-6.468 1.126-9.886-.338-1.65-.835-3.275-2.397-4.124-1.033-.56-2.264-1.08-3.4-1.066-3.48.043-6.473 1.51-9.241 3.583-2.13 1.595-4.41 2.99-6.621 4.471ZM228.391 297.468c.322-2.45.637-4.901.97-7.349.129-.953.51-1.883 1.596-1.809 1.065.074 1.309 1.087 1.433 2.001.518 3.815.964 7.641 1.546 11.446.404 2.63.735 5.316 1.552 7.829 1.163 3.573 2.453 7.165 4.215 10.468 2.357 4.419 4.697 8.998 9.259 11.719a19.86 19.86 0 0 0 7.358 2.634c2.213.325 2.984 1.653 2.53 3.845-.187.901-.809 1.162-1.543 1.005-5.575-1.192-10.963-2.715-14.993-7.215-3.64-4.064-6.568-8.469-8.621-13.587-2.438-6.076-3.776-12.39-5.088-18.737-.15-.72-.093-1.484-.133-2.227l-.081-.023ZM298.285 274.315c-.268-3.972-.554-7.942-.789-11.916-.055-.927.042-1.866.105-2.797.266-3.985.529-7.971.833-11.954.073-.965.107-2.003.489-2.861.671-1.506 2.099-1.626 2.924-.194.667 1.158.996 2.542 1.306 3.866.455 1.946.647 3.957 1.157 5.886.66 2.495 1.242 4.917.932 7.578-.224 1.932.248 3.943.396 5.92.187 2.508.511 5.018.487 7.524-.017 1.752-.444 3.515-.825 5.243-.326 1.484-1.364 2.46-2.862 2.671-1.419.2-2.182-.704-2.856-1.913-1.239-2.222-1.455-4.598-1.297-7.053ZM274.459 273.344c.318-2.854.665-5.56.907-8.275.167-1.868.117-3.755.291-5.622.368-3.949.767-7.896 1.265-11.829.154-1.215.81-2.355 2.202-2.508 1.413-.155 2.125.978 2.394 2.067.482 1.954.736 3.973.966 5.978.188 1.649.315 3.321.273 4.977a336.66 336.66 0 0 1-.498 11.229c-.104 1.746-.422 3.478-.567 5.223-.15 1.824-.146 3.662-.331 5.482-.123 1.219-.745 2.226-2.099 2.348-1.162.105-2.137-.137-2.852-1.366-1.429-2.457-1.664-5.139-1.951-7.704ZM389.591 388.67c.941.535 1.732.821 2.303 1.346.988.907.564 2.546-.747 2.555-2.978.022-4.222 2.366-5.934 4.042-2.895 2.833-5.703 5.76-8.47 8.719-3.317 3.546-7.428 6.022-11.405 8.687-3.289 2.204-6.558 4.441-9.867 6.615-.825.543-1.742.988-2.676 1.304-.421.143-1.219.024-1.426-.271-.232-.332-.194-1.209.084-1.476.987-.95 2.049-1.873 3.223-2.566 2.813-1.661 5.859-2.964 8.527-4.82 3.398-2.364 6.624-5.01 9.721-7.763 2.504-2.227 4.771-4.736 7.025-7.226 2.122-2.343 3.995-4.915 6.173-7.199.853-.895 2.239-1.282 3.469-1.947ZM246.387 284.695c.167.574.415 1.137.488 1.722.666 5.359 1.159 10.745 1.994 16.078.587 3.751 2.593 6.976 4.694 10.095.271.402.728.868.682 1.255-.09.75-.315 1.624-.811 2.123-.222.223-1.457-.129-1.845-.566-4.42-4.968-7.155-10.701-7.33-17.44-.081-3.156.021-6.327.243-9.477.091-1.294.716-2.552 1.098-3.826l.787.036ZM284.767 304.028c-1.398-.313-2.404-.425-3.326-.765-3.059-1.128-6.177-2.16-9.089-3.599-1.318-.652-2.206-2.175-3.285-3.306-.818-.857-1.668-1.687-2.427-2.593-.371-.443-.782-1.03-.786-1.555-.005-.647.224-1.623.666-1.853.435-.227 1.428.12 1.887.535 1.32 1.194 2.299 2.872 3.773 3.765 2.12 1.285 4.513 2.174 6.874 2.987 1.855.639 3.861.825 5.751 1.379.811.238 1.713.752 2.173 1.417.358.518.403 1.718.037 2.163-.589.717-1.631 1.061-2.248 1.425ZM387.556 279.116c.283-4.958.842-9.538 3.37-13.546.819-1.3 2.187-2.285 3.415-3.275.331-.267 1.072-.025 1.624-.017-.025.559-.027 1.121-.09 1.675a.761.761 0 0 1-.319.493c-2.278 1.409-2.873 3.89-3.779 6.115-1.023 2.515-1.838 5.119-2.633 7.718-.354 1.162.193 2.15 1.218 2.785.989.613 1.805.264 2.477-.589 1.577-2.001 2.904-4.135 3.393-6.683.247-1.29.337-2.618.685-3.877.135-.488.79-.832 1.208-1.242.263.422.824.914.744 1.255-1.084 4.601-2.206 9.2-5.079 13.112-.675.919-1.39 1.729-2.722 1.314-1.552-.483-2.813-1.287-3.196-2.984-.189-.839-.243-1.709-.316-2.254Z"/><path fill="#000" d="M342.977 405.21c.402-1.033.708-2.118 1.232-3.085.561-1.035 1.323-1.963 2.006-2.931 2.078-2.949 3.957-6.07 6.309-8.781 1.682-1.938 3.957-3.381 6.062-4.915.519-.378 1.547-.542 2.091-.282.696.333 1.369 1.124 1.596 1.858.118.386-.644 1.19-1.169 1.599-1.354 1.052-2.772 2.029-4.21 2.965-2.906 1.891-4.968 4.629-7.229 7.157-1.698 1.899-3.218 3.957-4.858 5.909-.33.394-.844.635-1.274.947l-.556-.441ZM271.281 307.622c-2.12-.336-4.854-2.47-5.181-4.27-.068-.373.121-.98.403-1.178.324-.228.948-.282 1.328-.129 1.385.554 2.815 1.088 4.039 1.91.652.438 1.27 1.471 1.234 2.202-.027.517-1.176.978-1.823 1.465ZM321.258 357.383l-.73-1.67.899-.341.62 1.718-.789.293Z"/></svg>