<svg xmlns="http://www.w3.org/2000/svg" width="16" height="16" fill="none"><path fill="#fff" d="M11.213 2.744c.263-.262.483-.372.663-.331.18.014.407.159.683.435.276.276.428.51.456.704.027.166-.09.38-.352.642l-3.48 3.48 3.687 3.686c.262.262.38.49.352.683-.028.194-.18.428-.456.704-.29.29-.531.45-.725.477-.193.027-.42-.09-.683-.352L7.672 9.185l-3.459 3.459c-.262.262-.483.386-.663.373-.193-.028-.428-.18-.704-.456-.276-.276-.42-.504-.435-.684-.027-.193.09-.42.352-.683l3.459-3.459-3.48-3.479c-.262-.262-.379-.49-.351-.683.027-.194.186-.435.476-.725.276-.276.51-.428.704-.456.193-.027.421.09.683.352l3.48 3.48 3.48-3.48Z"/></svg>